<svg width="107" height="19" viewBox="0 0 107 19" fill="none" xmlns="http://www.w3.org/2000/svg">
  <path fill="white" d="M11.636 0.719999L10.916 4.56H6.5V7.824H10.484L9.764 11.664H6.5V18H1.82V4.008L0.5 0.719999H11.636ZM15.3029 15.672L14.8469 18H9.83094L13.2869 2.88L12.7349 0.527999H19.9829L23.7509 18H18.7829L18.3269 15.672H15.3029ZM15.7829 11.952H17.8229L16.8149 5.664L15.7829 11.952ZM22.2997 0.719999H27.2917L28.3717 7.944L29.1157 12.888L29.9317 7.944L31.0117 0.719999H35.7397L31.8037 18H26.2357L22.2997 0.719999ZM42.2898 18.24C40.7218 18.24 39.4578 17.976 38.4978 17.448C37.5378 16.904 36.8338 15.992 36.3858 14.712C35.9538 13.416 35.7378 11.64 35.7378 9.384C35.7378 7.128 35.9538 5.36 36.3858 4.08C36.8338 2.784 37.5378 1.872 38.4978 1.344C39.4578 0.799999 40.7218 0.527999 42.2898 0.527999C43.8578 0.527999 45.1218 0.799999 46.0818 1.344C47.0418 1.872 47.7378 2.784 48.1698 4.08C48.6178 5.36 48.8418 7.128 48.8418 9.384C48.8418 11.64 48.6178 13.416 48.1698 14.712C47.7378 15.992 47.0418 16.904 46.0818 17.448C45.1218 17.976 43.8578 18.24 42.2898 18.24ZM43.8018 9.336C43.8018 7.96 43.7538 6.912 43.6578 6.192C43.5778 5.456 43.4258 4.952 43.2018 4.68C42.9938 4.392 42.6898 4.248 42.2898 4.248C41.9058 4.248 41.6018 4.392 41.3778 4.68C41.1538 4.952 40.9938 5.456 40.8978 6.192C40.8178 6.912 40.7778 7.96 40.7778 9.336C40.7778 10.696 40.8178 11.752 40.8978 12.504C40.9938 13.256 41.1538 13.784 41.3778 14.088C41.6018 14.376 41.9058 14.52 42.2898 14.52C42.6898 14.52 42.9938 14.376 43.2018 14.088C43.4258 13.784 43.5778 13.256 43.6578 12.504C43.7538 11.752 43.8018 10.696 43.8018 9.336ZM55.9488 0.719999C57.3568 0.719999 58.5328 0.903999 59.4768 1.272C60.4208 1.624 61.1248 2.224 61.5888 3.072C62.0688 3.904 62.3088 5.048 62.3088 6.504C62.3088 7.72 62.1248 8.72 61.7568 9.504C61.3888 10.272 60.8288 10.888 60.0768 11.352L63.0048 18H57.7968L55.9008 12.384H55.1328V18H50.4528V4.008L49.1328 0.719999H55.9488ZM55.1328 9.168C55.8688 9.168 56.4128 8.984 56.7648 8.616C57.1168 8.248 57.2928 7.6 57.2928 6.672C57.2928 5.936 57.2288 5.392 57.1008 5.04C56.9728 4.672 56.7488 4.424 56.4288 4.296C56.1248 4.168 55.6928 4.104 55.1328 4.104V9.168ZM64.205 0.719999H68.885V18H64.205V0.719999ZM81.5848 4.56H78.4168V18H73.7128V4.56H70.2088V0.719999H82.3047L81.5848 4.56ZM82.4141 0.719999H93.9101L93.1901 4.56H88.4141V7.2H92.9021L92.1821 11.04H88.4141V14.16H94.0781L93.3581 18H83.7341V4.008L82.4141 0.719999ZM99.8375 14.088C100.446 14.088 100.902 14 101.206 13.824C101.51 13.648 101.662 13.36 101.662 12.96C101.662 12.688 101.59 12.472 101.446 12.312C101.302 12.152 101.046 11.992 100.678 11.832L98.1335 10.656C97.1895 10.224 96.4615 9.648 95.9495 8.928C95.4375 8.208 95.1815 7.16 95.1815 5.784C95.1815 4.024 95.6375 2.712 96.5495 1.848C97.4775 0.967999 99.0055 0.519999 101.134 0.503999C102.014 0.503999 102.814 0.543999 103.534 0.623999C104.254 0.703999 104.83 0.791999 105.262 0.887999C105.694 0.967999 105.91 1.008 105.91 1.008L105.43 4.872C105.43 4.872 105.23 4.848 104.83 4.8C104.446 4.752 103.966 4.712 103.39 4.68C102.814 4.632 102.254 4.608 101.71 4.608C101.134 4.608 100.694 4.696 100.39 4.872C100.102 5.032 99.9575 5.344 99.9575 5.808C99.9575 6.064 100.07 6.28 100.294 6.456C100.518 6.616 100.83 6.784 101.23 6.96L103.27 7.848C104.358 8.328 105.15 8.928 105.646 9.648C106.142 10.352 106.39 11.36 106.39 12.672C106.39 14.448 105.926 15.816 104.998 16.776C104.07 17.736 102.542 18.224 100.414 18.24C99.3575 18.24 98.3735 18.168 97.4615 18.024C96.5495 17.896 95.7415 17.744 95.0375 17.568L95.5175 13.704C95.5175 13.704 95.7095 13.736 96.0935 13.8C96.4935 13.864 97.0215 13.928 97.6775 13.992C98.3335 14.056 99.0535 14.088 99.8375 14.088Z"/>
</svg>
