<svg width="78" height="48" viewBox="0 0 78 48" fill="none" xmlns="http://www.w3.org/2000/svg">
  <path fill="white" d="M6.37003 0.719999L9.75403 10.584V0.719999H14.314V18H8.69803L5.62603 9.024V18H1.06603V3.192L0.0820312 0.719999H6.37003ZM16.4667 0.719999H21.1467V18H16.4667V0.719999ZM22.7105 9.48C22.7105 7.208 22.9745 5.424 23.5025 4.128C24.0305 2.816 24.8225 1.888 25.8785 1.344C26.9505 0.799999 28.2785 0.527999 29.8625 0.527999C30.3745 0.527999 30.9585 0.559999 31.6145 0.623999C32.2865 0.671999 32.9345 0.768 33.5585 0.912V7.248H30.6545L30.2705 4.344C29.8385 4.344 29.4625 4.4 29.1425 4.512C28.8385 4.608 28.5825 4.824 28.3745 5.16C28.1665 5.496 28.0065 6.008 27.8945 6.696C27.7985 7.384 27.7505 8.304 27.7505 9.456C27.7505 10.704 27.8865 11.688 28.1585 12.408C28.4305 13.112 28.8385 13.616 29.3825 13.92C29.9425 14.208 30.6545 14.352 31.5185 14.352C31.9025 14.352 32.2705 14.328 32.6225 14.28C32.9745 14.232 33.3505 14.176 33.7505 14.112V17.904C33.2865 18.016 32.7265 18.096 32.0705 18.144C31.4145 18.208 30.8305 18.24 30.3185 18.24C27.5825 18.24 25.6305 17.504 24.4625 16.032C23.2945 14.56 22.7105 12.376 22.7105 9.48ZM34.2305 0.719999H45.7265L45.0065 4.56H40.2305V7.2H44.7185L43.9985 11.04H40.2305V14.16H45.8945L45.1745 18H35.5505V4.008L34.2305 0.719999ZM63.8699 4.56H60.7019V18H55.9979V4.56H52.4939V0.719999H64.5899L63.8699 4.56ZM70.8875 18.24C69.3195 18.24 68.0555 17.976 67.0955 17.448C66.1355 16.904 65.4315 15.992 64.9835 14.712C64.5515 13.416 64.3355 11.64 64.3355 9.384C64.3355 7.128 64.5515 5.36 64.9835 4.08C65.4315 2.784 66.1355 1.872 67.0955 1.344C68.0555 0.799999 69.3195 0.527999 70.8875 0.527999C72.4555 0.527999 73.7195 0.799999 74.6795 1.344C75.6395 1.872 76.3355 2.784 76.7675 4.08C77.2155 5.36 77.4395 7.128 77.4395 9.384C77.4395 11.64 77.2155 13.416 76.7675 14.712C76.3355 15.992 75.6395 16.904 74.6795 17.448C73.7195 17.976 72.4555 18.24 70.8875 18.24ZM72.3995 9.336C72.3995 7.96 72.3515 6.912 72.2555 6.192C72.1755 5.456 72.0235 4.952 71.7995 4.68C71.5915 4.392 71.2875 4.248 70.8875 4.248C70.5035 4.248 70.1995 4.392 69.9755 4.68C69.7515 4.952 69.5915 5.456 69.4955 6.192C69.4155 6.912 69.3755 7.96 69.3755 9.336C69.3755 10.696 69.4155 11.752 69.4955 12.504C69.5915 13.256 69.7515 13.784 69.9755 14.088C70.1995 14.376 70.5035 14.52 70.8875 14.52C71.2875 14.52 71.5915 14.376 71.7995 14.088C72.0235 13.784 72.1755 13.256 72.2555 12.504C72.3515 11.752 72.3995 10.696 72.3995 9.336ZM25.7377 41.12C25.7377 41.968 25.8337 42.584 26.0257 42.968C26.2177 43.336 26.5217 43.52 26.9377 43.52C27.3697 43.52 27.6737 43.336 27.8497 42.968C28.0417 42.584 28.1377 41.968 28.1377 41.12V29.72H32.8177V40.904C32.8177 43.128 32.3377 44.744 31.3777 45.752C30.4177 46.744 28.9377 47.24 26.9377 47.24C24.9537 47.24 23.4737 46.744 22.4977 45.752C21.5377 44.744 21.0577 43.128 21.0577 40.904V29.72H25.7377V41.12ZM38.9508 43.088C39.5588 43.088 40.0148 43 40.3188 42.824C40.6228 42.648 40.7748 42.36 40.7748 41.96C40.7748 41.688 40.7028 41.472 40.5588 41.312C40.4148 41.152 40.1588 40.992 39.7908 40.832L37.2468 39.656C36.3028 39.224 35.5748 38.648 35.0628 37.928C34.5508 37.208 34.2948 36.16 34.2948 34.784C34.2948 33.024 34.7508 31.712 35.6628 30.848C36.5908 29.968 38.1188 29.52 40.2468 29.504C41.1268 29.504 41.9268 29.544 42.6468 29.624C43.3668 29.704 43.9428 29.792 44.3748 29.888C44.8068 29.968 45.0228 30.008 45.0228 30.008L44.5428 33.872C44.5428 33.872 44.3428 33.848 43.9428 33.8C43.5588 33.752 43.0788 33.712 42.5028 33.68C41.9268 33.632 41.3668 33.608 40.8228 33.608C40.2468 33.608 39.8068 33.696 39.5028 33.872C39.2148 34.032 39.0708 34.344 39.0708 34.808C39.0708 35.064 39.1828 35.28 39.4068 35.456C39.6308 35.616 39.9428 35.784 40.3428 35.96L42.3828 36.848C43.4708 37.328 44.2628 37.928 44.7588 38.648C45.2548 39.352 45.5028 40.36 45.5028 41.672C45.5028 43.448 45.0388 44.816 44.1108 45.776C43.1828 46.736 41.6548 47.224 39.5268 47.24C38.4708 47.24 37.4868 47.168 36.5748 47.024C35.6628 46.896 34.8548 46.744 34.1508 46.568L34.6308 42.704C34.6308 42.704 34.8228 42.736 35.2068 42.8C35.6068 42.864 36.1348 42.928 36.7908 42.992C37.4468 43.056 38.1668 43.088 38.9508 43.088ZM45.8789 29.72H57.3749L56.6549 33.56H51.8789V36.2H56.3669L55.6469 40.04H51.8789V43.16H57.5429L56.8229 47H47.1989V33.008L45.8789 29.72Z"/>
</svg>
