<svg width="103" height="44" viewBox="0 0 103 44" fill="none" xmlns="http://www.w3.org/2000/svg">
  <path fill="white" d="M11.1182 1.16L10.4582 4.68H6.41016V7.672H10.0622L9.40216 11.192H6.41016V17H2.12016V4.174L0.910156 1.16H11.1182ZM17.3632 1.16C18.6539 1.16 19.7319 1.32867 20.5972 1.666C21.4626 1.98867 22.1079 2.53867 22.5332 3.316C22.9732 4.07867 23.1932 5.12733 23.1932 6.462C23.1932 7.57667 23.0246 8.49333 22.6872 9.212C22.3499 9.916 21.8366 10.4807 21.1472 10.906L23.8312 17H19.0572L17.3192 11.852H16.6152V17H12.3252V4.174L11.1152 1.16H17.3632ZM16.6152 8.904C17.2899 8.904 17.7886 8.73533 18.1112 8.398C18.4339 8.06067 18.5952 7.46667 18.5952 6.616C18.5952 5.94133 18.5366 5.44267 18.4192 5.12C18.3019 4.78267 18.0966 4.55533 17.8032 4.438C17.5246 4.32067 17.1286 4.262 16.6152 4.262V8.904ZM30.1726 17.22C28.7352 17.22 27.5766 16.978 26.6966 16.494C25.8166 15.9953 25.1712 15.1593 24.7606 13.986C24.3646 12.798 24.1666 11.17 24.1666 9.102C24.1666 7.034 24.3646 5.41333 24.7606 4.24C25.1712 3.052 25.8166 2.216 26.6966 1.732C27.5766 1.23333 28.7352 0.983999 30.1726 0.983999C31.6099 0.983999 32.7686 1.23333 33.6486 1.732C34.5286 2.216 35.1666 3.052 35.5626 4.24C35.9732 5.41333 36.1786 7.034 36.1786 9.102C36.1786 11.17 35.9732 12.798 35.5626 13.986C35.1666 15.1593 34.5286 15.9953 33.6486 16.494C32.7686 16.978 31.6099 17.22 30.1726 17.22ZM31.5586 9.058C31.5586 7.79667 31.5146 6.836 31.4266 6.176C31.3532 5.50133 31.2139 5.03933 31.0086 4.79C30.8179 4.526 30.5392 4.394 30.1726 4.394C29.8206 4.394 29.5419 4.526 29.3366 4.79C29.1312 5.03933 28.9846 5.50133 28.8966 6.176C28.8232 6.836 28.7866 7.79667 28.7866 9.058C28.7866 10.3047 28.8232 11.2727 28.8966 11.962C28.9846 12.6513 29.1312 13.1353 29.3366 13.414C29.5419 13.678 29.8206 13.81 30.1726 13.81C30.5392 13.81 30.8179 13.678 31.0086 13.414C31.2139 13.1353 31.3532 12.6513 31.4266 11.962C31.5146 11.2727 31.5586 10.3047 31.5586 9.058ZM43.5513 13.744L41.6153 9.124V17H37.4353V4.174L36.2253 1.16H41.4613L44.5413 7.782L47.6213 1.16H51.6693V17H47.4893V9.168L45.5533 13.744H43.5513ZM68.814 4.68H65.91V17H61.598V4.68H58.386V1.16H69.474L68.814 4.68ZM70.5642 1.16H74.8542V17H70.5642V1.16ZM82.9537 13.744L81.0177 9.124V17H76.8377V4.174L75.6277 1.16H80.8637L83.9437 7.782L87.0237 1.16H91.0717V17H86.8917V9.168L84.9557 13.744H82.9537ZM92.0684 1.16H102.606L101.946 4.68H97.5684V7.1H101.682L101.022 10.62H97.5684V13.48H102.76L102.1 17H93.2784V4.174L92.0684 1.16ZM25.6734 30.68H22.7694V43H18.4574V30.68H15.2454V27.16H26.3334L25.6734 30.68ZM32.1062 43.22C30.6688 43.22 29.5102 42.978 28.6302 42.494C27.7502 41.9953 27.1048 41.1593 26.6942 39.986C26.2982 38.798 26.1002 37.17 26.1002 35.102C26.1002 33.034 26.2982 31.4133 26.6942 30.24C27.1048 29.052 27.7502 28.216 28.6302 27.732C29.5102 27.2333 30.6688 26.984 32.1062 26.984C33.5435 26.984 34.7022 27.2333 35.5822 27.732C36.4622 28.216 37.1002 29.052 37.4962 30.24C37.9068 31.4133 38.1122 33.034 38.1122 35.102C38.1122 37.17 37.9068 38.798 37.4962 39.986C37.1002 41.1593 36.4622 41.9953 35.5822 42.494C34.7022 42.978 33.5435 43.22 32.1062 43.22ZM33.4922 35.058C33.4922 33.7967 33.4482 32.836 33.3602 32.176C33.2868 31.5013 33.1475 31.0393 32.9422 30.79C32.7515 30.526 32.4728 30.394 32.1062 30.394C31.7542 30.394 31.4755 30.526 31.2702 30.79C31.0648 31.0393 30.9182 31.5013 30.8302 32.176C30.7568 32.836 30.7202 33.7967 30.7202 35.058C30.7202 36.3047 30.7568 37.2727 30.8302 37.962C30.9182 38.6513 31.0648 39.1353 31.2702 39.414C31.4755 39.678 31.7542 39.81 32.1062 39.81C32.4728 39.81 32.7515 39.678 32.9422 39.414C33.1475 39.1353 33.2868 38.6513 33.3602 37.962C33.4482 37.2727 33.4922 36.3047 33.4922 35.058ZM54.6988 30.68H51.7948V43H47.4828V30.68H44.2708V27.16H55.3588L54.6988 30.68ZM56.449 27.16H60.739V43H56.449V27.16ZM68.8384 39.744L66.9024 35.124V43H62.7224V30.174L61.5124 27.16H66.7484L69.8284 33.782L72.9084 27.16H76.9564V43H72.7764V35.168L70.8404 39.744H68.8384ZM77.9531 27.16H88.4911L87.8311 30.68H83.4531V33.1H87.5671L86.9071 36.62H83.4531V39.48H88.6451L87.9851 43H79.1631V30.174L77.9531 27.16Z"/>
</svg>
