<svg width="108" height="48" viewBox="0 0 108 48" fill="none" xmlns="http://www.w3.org/2000/svg">
  <path fill="white" d="M8.19731 14.448L6.08531 9.408V18H1.52531V4.008L0.205312 0.719999H5.91731L9.27731 7.944L12.6373 0.719999H17.0533V18H12.4933V9.456L10.3813 14.448H8.19731ZM19.2206 0.719999H23.9006V18H19.2206V0.719999ZM30.5044 9.456C30.5044 10.64 30.5924 11.584 30.7684 12.288C30.9444 12.992 31.2404 13.504 31.6564 13.824C32.0884 14.144 32.6804 14.336 33.4324 14.4V12.744L32.1124 9.456H37.7524V17.184C37.2404 17.52 36.5764 17.784 35.7604 17.976C34.9444 18.152 34.0084 18.24 32.9524 18.24C31.4164 18.24 30.0884 17.952 28.9684 17.376C27.8484 16.8 26.9844 15.872 26.3764 14.592C25.7684 13.296 25.4644 11.592 25.4644 9.48C25.4644 7.352 25.7924 5.632 26.4484 4.32C27.1044 3.008 28.0244 2.048 29.2084 1.44C30.3924 0.831999 31.7684 0.527999 33.3364 0.527999C33.8964 0.527999 34.4804 0.575999 35.0884 0.671999C35.6964 0.767999 36.3204 0.88 36.9604 1.008L36.5284 4.944C36.0004 4.848 35.5444 4.776 35.1604 4.728C34.7924 4.664 34.4164 4.632 34.0324 4.632C33.2004 4.632 32.5204 4.768 31.9924 5.04C31.4804 5.312 31.1044 5.8 30.8644 6.504C30.6244 7.192 30.5044 8.176 30.5044 9.456ZM48.9988 4.56H45.8308V18H41.1268V4.56H37.6228V0.719999H49.7188L48.9988 4.56ZM50.9081 18V0.719999H55.5881V7.368H57.9881V0.719999H62.6681V18H57.9881V11.208H55.5881V18H50.9081ZM75.39 12.12C75.39 12.968 75.486 13.584 75.678 13.968C75.87 14.336 76.174 14.52 76.59 14.52C77.022 14.52 77.326 14.336 77.502 13.968C77.694 13.584 77.79 12.968 77.79 12.12V0.719999H82.47V11.904C82.47 14.128 81.99 15.744 81.03 16.752C80.07 17.744 78.59 18.24 76.59 18.24C74.606 18.24 73.126 17.744 72.15 16.752C71.19 15.744 70.71 14.128 70.71 11.904V0.719999H75.39V12.12ZM88.6031 14.088C89.2111 14.088 89.6671 14 89.9711 13.824C90.2751 13.648 90.4271 13.36 90.4271 12.96C90.4271 12.688 90.3551 12.472 90.2111 12.312C90.0671 12.152 89.8111 11.992 89.4431 11.832L86.8991 10.656C85.9551 10.224 85.2271 9.648 84.7151 8.928C84.2031 8.208 83.9471 7.16 83.9471 5.784C83.9471 4.024 84.4031 2.712 85.3151 1.848C86.2431 0.967999 87.7711 0.519999 89.8991 0.503999C90.7791 0.503999 91.5791 0.543999 92.2991 0.623999C93.0191 0.703999 93.5951 0.791999 94.0271 0.887999C94.4591 0.967999 94.6751 1.008 94.6751 1.008L94.1951 4.872C94.1951 4.872 93.9951 4.848 93.5951 4.8C93.2111 4.752 92.7311 4.712 92.1551 4.68C91.5791 4.632 91.0191 4.608 90.4751 4.608C89.8991 4.608 89.4591 4.696 89.1551 4.872C88.8671 5.032 88.7231 5.344 88.7231 5.808C88.7231 6.064 88.8351 6.28 89.0591 6.456C89.2831 6.616 89.5951 6.784 89.9951 6.96L92.0351 7.848C93.1231 8.328 93.9151 8.928 94.4111 9.648C94.9071 10.352 95.1551 11.36 95.1551 12.672C95.1551 14.448 94.6911 15.816 93.7631 16.776C92.8351 17.736 91.3071 18.224 89.1791 18.24C88.1231 18.24 87.1391 18.168 86.2271 18.024C85.3151 17.896 84.5071 17.744 83.8031 17.568L84.2831 13.704C84.2831 13.704 84.4751 13.736 84.8591 13.8C85.2591 13.864 85.7871 13.928 86.4431 13.992C87.0991 14.056 87.8191 14.088 88.6031 14.088ZM95.5312 0.719999H107.027L106.307 4.56H101.531V7.2H106.019L105.299 11.04H101.531V14.16H107.195L106.475 18H96.8513V4.008L95.5312 0.719999ZM28.1623 44.672L27.7063 47H22.6903L26.1463 31.88L25.5943 29.528H32.8423L36.6103 47H31.6423L31.1863 44.672H28.1623ZM28.6423 40.952H30.6823L29.6743 34.664L28.6423 40.952ZM41.52 38.456C41.52 39.64 41.608 40.584 41.784 41.288C41.96 41.992 42.256 42.504 42.672 42.824C43.104 43.144 43.696 43.336 44.448 43.4V41.744L43.128 38.456H48.768V46.184C48.256 46.52 47.592 46.784 46.776 46.976C45.96 47.152 45.024 47.24 43.968 47.24C42.432 47.24 41.104 46.952 39.984 46.376C38.864 45.8 38 44.872 37.392 43.592C36.784 42.296 36.48 40.592 36.48 38.48C36.48 36.352 36.808 34.632 37.464 33.32C38.12 32.008 39.04 31.048 40.224 30.44C41.408 29.832 42.784 29.528 44.352 29.528C44.912 29.528 45.496 29.576 46.104 29.672C46.712 29.768 47.336 29.88 47.976 30.008L47.544 33.944C47.016 33.848 46.56 33.776 46.176 33.728C45.808 33.664 45.432 33.632 45.048 33.632C44.216 33.632 43.536 33.768 43.008 34.04C42.496 34.312 42.12 34.8 41.88 35.504C41.64 36.192 41.52 37.176 41.52 38.456ZM54.717 44.672L54.261 47H49.245L52.701 31.88L52.149 29.528H59.397L63.165 47H58.197L57.741 44.672H54.717ZM55.197 40.952H57.237L56.229 34.664L55.197 40.952ZM64.3613 29.72H69.0413V47H64.3613V29.72ZM76.413 29.72L79.797 39.584V29.72H84.357V47H78.741L75.669 38.024V47H71.109V32.192L70.125 29.72H76.413Z"/>
</svg>
