<svg width="118" height="78" viewBox="0 0 118 78" fill="none" xmlns="http://www.w3.org/2000/svg">
  <path fill="white" d="M0.912031 1.72H5.59203V19H0.912031V1.72ZM19.7078 1.72C21.3558 1.72 22.6838 1.976 23.6918 2.488C24.6998 2.984 25.4358 3.84 25.8998 5.056C26.3638 6.256 26.5958 7.912 26.5958 10.024C26.5958 12.296 26.3638 14.088 25.8998 15.4C25.4358 16.712 24.6998 17.64 23.6918 18.184C22.6838 18.728 21.3558 19 19.7078 19H13.9958V5.008L12.6758 1.72H19.7078ZM19.4198 15.16C19.9318 15.16 20.3398 15.008 20.6438 14.704C20.9638 14.384 21.1958 13.856 21.3398 13.12C21.4838 12.368 21.5558 11.336 21.5558 10.024C21.5558 8.824 21.4918 7.904 21.3638 7.264C21.2358 6.608 21.0198 6.16 20.7158 5.92C20.4118 5.68 19.9798 5.56 19.4198 5.56H18.6758V15.16H19.4198ZM34.0984 19.24C32.5304 19.24 31.2664 18.976 30.3064 18.448C29.3464 17.904 28.6424 16.992 28.1944 15.712C27.7624 14.416 27.5464 12.64 27.5464 10.384C27.5464 8.128 27.7624 6.36 28.1944 5.08C28.6424 3.784 29.3464 2.872 30.3064 2.344C31.2664 1.8 32.5304 1.528 34.0984 1.528C35.6664 1.528 36.9304 1.8 37.8904 2.344C38.8504 2.872 39.5464 3.784 39.9784 5.08C40.4264 6.36 40.6504 8.128 40.6504 10.384C40.6504 12.64 40.4264 14.416 39.9784 15.712C39.5464 16.992 38.8504 17.904 37.8904 18.448C36.9304 18.976 35.6664 19.24 34.0984 19.24ZM35.6104 10.336C35.6104 8.96 35.5624 7.912 35.4664 7.192C35.3864 6.456 35.2344 5.952 35.0104 5.68C34.8024 5.392 34.4984 5.248 34.0984 5.248C33.7144 5.248 33.4104 5.392 33.1864 5.68C32.9624 5.952 32.8024 6.456 32.7064 7.192C32.6264 7.912 32.5864 8.96 32.5864 10.336C32.5864 11.696 32.6264 12.752 32.7064 13.504C32.8024 14.256 32.9624 14.784 33.1864 15.088C33.4104 15.376 33.7144 15.52 34.0984 15.52C34.4984 15.52 34.8024 15.376 35.0104 15.088C35.2344 14.784 35.3864 14.256 35.4664 13.504C35.5624 12.752 35.6104 11.696 35.6104 10.336ZM47.2294 1.72L50.6134 11.584V1.72H55.1734V19H49.5574L46.4854 10.024V19H41.9254V4.192L40.9414 1.72H47.2294ZM56.9661 0.904H61.1901L60.6621 8.008H57.4701L56.9661 0.904ZM73.534 5.56H70.366V19H65.662V5.56H62.158V1.72H74.254L73.534 5.56ZM86.0033 13.12C86.0033 13.968 86.0993 14.584 86.2913 14.968C86.4833 15.336 86.7873 15.52 87.2033 15.52C87.6353 15.52 87.9393 15.336 88.1153 14.968C88.3073 14.584 88.4033 13.968 88.4033 13.12V1.72H93.0833V12.904C93.0833 15.128 92.6033 16.744 91.6433 17.752C90.6833 18.744 89.2033 19.24 87.2033 19.24C85.2193 19.24 83.7393 18.744 82.7633 17.752C81.8033 16.744 81.3233 15.128 81.3233 12.904V1.72H86.0033V13.12ZM99.2164 15.088C99.8244 15.088 100.28 15 100.584 14.824C100.888 14.648 101.04 14.36 101.04 13.96C101.04 13.688 100.968 13.472 100.824 13.312C100.68 13.152 100.424 12.992 100.056 12.832L97.5124 11.656C96.5684 11.224 95.8404 10.648 95.3284 9.928C94.8164 9.208 94.5604 8.16 94.5604 6.784C94.5604 5.024 95.0164 3.712 95.9284 2.848C96.8564 1.968 98.3844 1.52 100.512 1.504C101.392 1.504 102.192 1.544 102.912 1.624C103.632 1.704 104.208 1.792 104.64 1.888C105.072 1.968 105.288 2.008 105.288 2.008L104.808 5.872C104.808 5.872 104.608 5.848 104.208 5.8C103.824 5.752 103.344 5.712 102.768 5.68C102.192 5.632 101.632 5.608 101.088 5.608C100.512 5.608 100.072 5.696 99.7684 5.872C99.4804 6.032 99.3364 6.344 99.3364 6.808C99.3364 7.064 99.4484 7.28 99.6724 7.456C99.8964 7.616 100.208 7.784 100.608 7.96L102.648 8.848C103.736 9.328 104.528 9.928 105.024 10.648C105.52 11.352 105.768 12.36 105.768 13.672C105.768 15.448 105.304 16.816 104.376 17.776C103.448 18.736 101.92 19.224 99.7924 19.24C98.7364 19.24 97.7524 19.168 96.8404 19.024C95.9284 18.896 95.1204 18.744 94.4164 18.568L94.8964 14.704C94.8964 14.704 95.0884 14.736 95.4724 14.8C95.8724 14.864 96.4004 14.928 97.0564 14.992C97.7124 15.056 98.4324 15.088 99.2164 15.088ZM106.145 1.72H117.641L116.921 5.56H112.145V8.2H116.633L115.913 12.04H112.145V15.16H117.809L117.089 19H107.465V5.008L106.145 1.72ZM42.573 34.56H39.405V48H34.701V34.56H31.197V30.72H43.293L42.573 34.56ZM44.4823 48V30.72H49.1623V37.368H51.5623V30.72H56.2423V48H51.5623V41.208H49.1623V48H44.4823ZM57.3242 30.72H68.8202L68.1002 34.56H63.3242V37.2H67.8122L67.0922 41.04H63.3242V44.16H68.9882L68.2682 48H58.6442V34.008L57.3242 30.72ZM77.0997 44.448L74.9877 39.408V48H70.4277V34.008L69.1077 30.72H74.8197L78.1797 37.944L81.5397 30.72H85.9557V48H81.3957V39.456L79.2837 44.448H77.0997ZM14.5764 74.672L14.1204 77H9.10438L12.5604 61.88L12.0084 59.528H19.2564L23.0244 77H18.0564L17.6004 74.672H14.5764ZM15.0564 70.952H17.0964L16.0884 64.664L15.0564 70.952ZM29.1943 59.72L32.5783 69.584V59.72H37.1383V77H31.5223L28.4503 68.024V77H23.8903V62.192L22.9062 59.72H29.1943ZM42.6989 71.72L38.3309 59.72H43.3709L44.7629 64.808L45.1469 66.92H45.1949L45.5789 64.808L46.9709 59.72H51.7709L47.3789 71.72V77H42.6989V71.72ZM59.6504 73.448L57.5384 68.408V77H52.9784V63.008L51.6584 59.72H57.3704L60.7304 66.944L64.0904 59.72H68.5064V77H63.9464V68.456L61.8344 73.448H59.6504ZM76.3914 77.24C74.8234 77.24 73.5594 76.976 72.5994 76.448C71.6394 75.904 70.9354 74.992 70.4874 73.712C70.0554 72.416 69.8394 70.64 69.8394 68.384C69.8394 66.128 70.0554 64.36 70.4874 63.08C70.9354 61.784 71.6394 60.872 72.5994 60.344C73.5594 59.8 74.8234 59.528 76.3914 59.528C77.9594 59.528 79.2234 59.8 80.1834 60.344C81.1434 60.872 81.8394 61.784 82.2714 63.08C82.7194 64.36 82.9434 66.128 82.9434 68.384C82.9434 70.64 82.7194 72.416 82.2714 73.712C81.8394 74.992 81.1434 75.904 80.1834 76.448C79.2234 76.976 77.9594 77.24 76.3914 77.24ZM77.9034 68.336C77.9034 66.96 77.8554 65.912 77.7594 65.192C77.6794 64.456 77.5274 63.952 77.3034 63.68C77.0954 63.392 76.7914 63.248 76.3914 63.248C76.0074 63.248 75.7034 63.392 75.4794 63.68C75.2554 63.952 75.0954 64.456 74.9994 65.192C74.9194 65.912 74.8794 66.96 74.8794 68.336C74.8794 69.696 74.9194 70.752 74.9994 71.504C75.0954 72.256 75.2554 72.784 75.4794 73.088C75.7034 73.376 76.0074 73.52 76.3914 73.52C76.7914 73.52 77.0954 73.376 77.3034 73.088C77.5274 72.784 77.6794 72.256 77.7594 71.504C77.8554 70.752 77.9034 69.696 77.9034 68.336ZM90.0504 59.72C91.4584 59.72 92.6344 59.904 93.5784 60.272C94.5224 60.624 95.2264 61.224 95.6904 62.072C96.1704 62.904 96.4104 64.048 96.4104 65.504C96.4104 66.72 96.2264 67.72 95.8584 68.504C95.4904 69.272 94.9304 69.888 94.1784 70.352L97.1064 77H91.8984L90.0024 71.384H89.2344V77H84.5544V63.008L83.2344 59.72H90.0504ZM89.2344 68.168C89.9704 68.168 90.5144 67.984 90.8664 67.616C91.2184 67.248 91.3944 66.6 91.3944 65.672C91.3944 64.936 91.3304 64.392 91.2024 64.04C91.0744 63.672 90.8504 63.424 90.5304 63.296C90.2264 63.168 89.7944 63.104 89.2344 63.104V68.168ZM96.9922 59.72H108.488L107.768 63.56H102.992V66.2H107.48L106.76 70.04H102.992V73.16H108.656L107.936 77H98.3122V63.008L96.9922 59.72Z"/>
</svg>
