<svg width="109" height="48" viewBox="0 0 109 48" fill="none" xmlns="http://www.w3.org/2000/svg">
  <path fill="white" d="M8.83403 14.448L6.72203 9.408V18H2.16203V4.008L0.842031 0.719999H6.55403L9.91403 7.944L13.274 0.719999H17.69V18H13.13V9.456L11.018 14.448H8.83403ZM19.8573 0.719999H24.5373V18H19.8573V0.719999ZM31.1411 9.456C31.1411 10.64 31.2291 11.584 31.4051 12.288C31.5811 12.992 31.8771 13.504 32.2931 13.824C32.7251 14.144 33.3171 14.336 34.0691 14.4V12.744L32.7491 9.456H38.3891V17.184C37.8771 17.52 37.2131 17.784 36.3971 17.976C35.5811 18.152 34.6451 18.24 33.5891 18.24C32.0531 18.24 30.7251 17.952 29.6051 17.376C28.4851 16.8 27.6211 15.872 27.0131 14.592C26.4051 13.296 26.1011 11.592 26.1011 9.48C26.1011 7.352 26.4291 5.632 27.0851 4.32C27.7411 3.008 28.6611 2.048 29.8451 1.44C31.0291 0.831999 32.4051 0.527999 33.9731 0.527999C34.5331 0.527999 35.1171 0.575999 35.7251 0.671999C36.3331 0.767999 36.9571 0.88 37.5971 1.008L37.1651 4.944C36.6371 4.848 36.1811 4.776 35.7971 4.728C35.4291 4.664 35.0531 4.632 34.6691 4.632C33.8371 4.632 33.1571 4.768 32.6291 5.04C32.1171 5.312 31.7411 5.8 31.5011 6.504C31.2611 7.192 31.1411 8.176 31.1411 9.456ZM39.8261 18V0.719999H44.5061V7.368H46.9061V0.719999H51.5861V18H46.9061V11.208H44.5061V18H39.8261ZM64.284 4.56H61.116V18H56.412V4.56H52.908V0.719999H65.004L64.284 4.56ZM76.7533 12.12C76.7533 12.968 76.8493 13.584 77.0413 13.968C77.2333 14.336 77.5373 14.52 77.9533 14.52C78.3853 14.52 78.6893 14.336 78.8653 13.968C79.0573 13.584 79.1533 12.968 79.1533 12.12V0.719999H83.8333V11.904C83.8333 14.128 83.3533 15.744 82.3933 16.752C81.4333 17.744 79.9533 18.24 77.9533 18.24C75.9693 18.24 74.4893 17.744 73.5133 16.752C72.5533 15.744 72.0733 14.128 72.0733 11.904V0.719999H76.7533V12.12ZM89.9664 14.088C90.5744 14.088 91.0304 14 91.3344 13.824C91.6384 13.648 91.7904 13.36 91.7904 12.96C91.7904 12.688 91.7184 12.472 91.5744 12.312C91.4304 12.152 91.1744 11.992 90.8064 11.832L88.2624 10.656C87.3184 10.224 86.5904 9.648 86.0784 8.928C85.5664 8.208 85.3104 7.16 85.3104 5.784C85.3104 4.024 85.7664 2.712 86.6784 1.848C87.6064 0.967999 89.1344 0.519999 91.2624 0.503999C92.1424 0.503999 92.9424 0.543999 93.6624 0.623999C94.3824 0.703999 94.9584 0.791999 95.3904 0.887999C95.8224 0.967999 96.0384 1.008 96.0384 1.008L95.5584 4.872C95.5584 4.872 95.3584 4.848 94.9584 4.8C94.5744 4.752 94.0944 4.712 93.5184 4.68C92.9424 4.632 92.3824 4.608 91.8384 4.608C91.2624 4.608 90.8224 4.696 90.5184 4.872C90.2304 5.032 90.0864 5.344 90.0864 5.808C90.0864 6.064 90.1984 6.28 90.4224 6.456C90.6464 6.616 90.9584 6.784 91.3584 6.96L93.3984 7.848C94.4864 8.328 95.2784 8.928 95.7744 9.648C96.2704 10.352 96.5184 11.36 96.5184 12.672C96.5184 14.448 96.0544 15.816 95.1264 16.776C94.1984 17.736 92.6704 18.224 90.5424 18.24C89.4864 18.24 88.5024 18.168 87.5904 18.024C86.6784 17.896 85.8704 17.744 85.1664 17.568L85.6464 13.704C85.6464 13.704 85.8384 13.736 86.2224 13.8C86.6224 13.864 87.1504 13.928 87.8064 13.992C88.4624 14.056 89.1824 14.088 89.9664 14.088ZM96.8945 0.719999H108.391L107.671 4.56H102.895V7.2H107.383L106.663 11.04H102.895V14.16H108.559L107.839 18H98.2145V4.008L96.8945 0.719999ZM29.1623 44.672L28.7063 47H23.6903L27.1463 31.88L26.5943 29.528H33.8423L37.6103 47H32.6423L32.1863 44.672H29.1623ZM29.6423 40.952H31.6823L30.6743 34.664L29.6423 40.952ZM42.52 38.456C42.52 39.64 42.608 40.584 42.784 41.288C42.96 41.992 43.256 42.504 43.672 42.824C44.104 43.144 44.696 43.336 45.448 43.4V41.744L44.128 38.456H49.768V46.184C49.256 46.52 48.592 46.784 47.776 46.976C46.96 47.152 46.024 47.24 44.968 47.24C43.432 47.24 42.104 46.952 40.984 46.376C39.864 45.8 39 44.872 38.392 43.592C37.784 42.296 37.48 40.592 37.48 38.48C37.48 36.352 37.808 34.632 38.464 33.32C39.12 32.008 40.04 31.048 41.224 30.44C42.408 29.832 43.784 29.528 45.352 29.528C45.912 29.528 46.496 29.576 47.104 29.672C47.712 29.768 48.336 29.88 48.976 30.008L48.544 33.944C48.016 33.848 47.56 33.776 47.176 33.728C46.808 33.664 46.432 33.632 46.048 33.632C45.216 33.632 44.536 33.768 44.008 34.04C43.496 34.312 43.12 34.8 42.88 35.504C42.64 36.192 42.52 37.176 42.52 38.456ZM55.717 44.672L55.261 47H50.245L53.701 31.88L53.149 29.528H60.397L64.165 47H59.197L58.741 44.672H55.717ZM56.197 40.952H58.237L57.229 34.664L56.197 40.952ZM65.3613 29.72H70.0413V47H65.3613V29.72ZM77.413 29.72L80.797 39.584V29.72H85.357V47H79.741L76.669 38.024V47H72.109V32.192L71.125 29.72H77.413Z" />
</svg>
