<svg width="129" height="18" viewBox="0 0 129 18" fill="none" xmlns="http://www.w3.org/2000/svg">
  <path fill="white" d="M7.70778 0.219999C9.35578 0.219999 10.6838 0.475999 11.6918 0.987999C12.6998 1.484 13.4358 2.34 13.8998 3.556C14.3638 4.756 14.5958 6.412 14.5958 8.524C14.5958 10.796 14.3638 12.588 13.8998 13.9C13.4358 15.212 12.6998 16.14 11.6918 16.684C10.6838 17.228 9.35578 17.5 7.70778 17.5H1.99578V3.508L0.675781 0.219999H7.70778ZM7.41978 13.66C7.93178 13.66 8.33978 13.508 8.64378 13.204C8.96378 12.884 9.19578 12.356 9.33978 11.62C9.48378 10.868 9.55578 9.836 9.55578 8.524C9.55578 7.324 9.49178 6.404 9.36378 5.764C9.23578 5.108 9.01978 4.66 8.71578 4.42C8.41178 4.18 7.97978 4.06 7.41978 4.06H6.67578V13.66H7.41978ZM14.8789 0.219999H26.3749L25.6549 4.06H20.8789V6.7H25.3669L24.6469 10.54H20.8789V13.66H26.5429L25.8229 17.5H16.1989V3.508L14.8789 0.219999ZM28.2223 17.5V3.508L26.9023 0.219999H33.8143C35.2543 0.219999 36.4463 0.419999 37.3903 0.819999C38.3343 1.204 39.0383 1.86 39.5023 2.788C39.9663 3.716 40.1983 4.98 40.1983 6.58C40.1983 8.788 39.6703 10.38 38.6143 11.356C37.5583 12.332 35.9583 12.82 33.8143 12.82H32.9023V17.5H28.2223ZM32.9023 9.388C33.6703 9.388 34.2383 9.18 34.6063 8.764C34.9903 8.348 35.1823 7.604 35.1823 6.532C35.1823 5.716 35.1103 5.1 34.9663 4.684C34.8383 4.268 34.6063 3.988 34.2703 3.844C33.9503 3.684 33.4943 3.604 32.9023 3.604V9.388ZM47.3824 0.219999C48.7904 0.219999 49.9664 0.403999 50.9104 0.771999C51.8544 1.124 52.5584 1.724 53.0224 2.572C53.5024 3.404 53.7424 4.548 53.7424 6.004C53.7424 7.22 53.5584 8.22 53.1904 9.004C52.8224 9.772 52.2624 10.388 51.5104 10.852L54.4384 17.5H49.2304L47.3344 11.884H46.5664V17.5H41.8864V3.508L40.5664 0.219999H47.3824ZM46.5664 8.668C47.3024 8.668 47.8464 8.484 48.1984 8.116C48.5504 7.748 48.7264 7.1 48.7264 6.172C48.7264 5.436 48.6624 4.892 48.5344 4.54C48.4064 4.172 48.1824 3.924 47.8624 3.796C47.5584 3.668 47.1264 3.604 46.5664 3.604V8.668ZM54.3242 0.219999H65.8202L65.1002 4.06H60.3242V6.7H64.8122L64.0922 10.54H60.3242V13.66H65.9882L65.2682 17.5H55.6442V3.508L54.3242 0.219999ZM66.5933 8.98C66.5933 6.708 66.8573 4.924 67.3853 3.628C67.9133 2.316 68.7053 1.388 69.7613 0.844C70.8333 0.299999 72.1613 0.0279989 73.7453 0.0279989C74.2573 0.0279989 74.8413 0.059999 75.4973 0.123999C76.1693 0.171999 76.8173 0.268 77.4413 0.412V6.748H74.5373L74.1533 3.844C73.7213 3.844 73.3453 3.9 73.0253 4.012C72.7213 4.108 72.4653 4.324 72.2573 4.66C72.0493 4.996 71.8893 5.508 71.7773 6.196C71.6813 6.884 71.6333 7.804 71.6333 8.956C71.6333 10.204 71.7693 11.188 72.0413 11.908C72.3133 12.612 72.7213 13.116 73.2653 13.42C73.8253 13.708 74.5373 13.852 75.4013 13.852C75.7853 13.852 76.1533 13.828 76.5053 13.78C76.8573 13.732 77.2333 13.676 77.6333 13.612V17.404C77.1693 17.516 76.6093 17.596 75.9533 17.644C75.2973 17.708 74.7133 17.74 74.2013 17.74C71.4653 17.74 69.5133 17.004 68.3453 15.532C67.1773 14.06 66.5933 11.876 66.5933 8.98ZM83.8225 15.172L83.3665 17.5H78.3505L81.8065 2.38L81.2545 0.0279989H88.5025L92.2705 17.5H87.3025L86.8465 15.172H83.8225ZM84.3025 11.452H86.3425L85.3345 5.164L84.3025 11.452ZM102.081 4.06H98.9128V17.5H94.2088V4.06H90.7048V0.219999H102.801L102.081 4.06ZM102.91 0.219999H114.406L113.686 4.06H108.91V6.7H113.398L112.678 10.54H108.91V13.66H114.574L113.854 17.5H104.23V3.508L102.91 0.219999ZM121.966 0.219999C123.614 0.219999 124.942 0.475999 125.95 0.987999C126.958 1.484 127.694 2.34 128.158 3.556C128.622 4.756 128.854 6.412 128.854 8.524C128.854 10.796 128.622 12.588 128.158 13.9C127.694 15.212 126.958 16.14 125.95 16.684C124.942 17.228 123.614 17.5 121.966 17.5H116.254V3.508L114.934 0.219999H121.966ZM121.678 13.66C122.19 13.66 122.598 13.508 122.902 13.204C123.222 12.884 123.454 12.356 123.598 11.62C123.742 10.868 123.814 9.836 123.814 8.524C123.814 7.324 123.75 6.404 123.622 5.764C123.494 5.108 123.278 4.66 122.974 4.42C122.67 4.18 122.238 4.06 121.678 4.06H120.934V13.66H121.678Z"/>
</svg>
