<svg width="321" height="34" viewBox="0 0 321 34" fill="none" xmlns="http://www.w3.org/2000/svg">
  <path fill="white" d="M8.388 24.508L7.704 28H0.18L5.364 5.32L4.536 1.792H15.408L21.06 28H13.608L12.924 24.508H8.388ZM9.108 18.928H12.168L10.656 9.496L9.108 18.928ZM22.6744 28V7.3H28.1824L28.9024 10.18H28.9744C29.3584 8.98 30.0304 8.104 30.9904 7.552C31.9744 7 33.2104 6.856 34.6984 7.12V13.24C33.7624 13.24 32.7904 13.3 31.7824 13.42C30.7984 13.54 29.9224 13.708 29.1544 13.924V28H22.6744ZM45.1181 7.3H49.0421V12.16H45.1181V21.124C45.1181 21.796 45.2861 22.288 45.6221 22.6C45.9821 22.912 46.5461 23.068 47.3141 23.068C47.6981 23.068 48.0341 23.056 48.3221 23.032C48.6101 22.984 48.8501 22.936 49.0421 22.888V27.676C48.4661 27.868 47.8541 28.024 47.2061 28.144C46.5821 28.288 45.9461 28.36 45.2981 28.36C43.0901 28.36 41.4221 27.892 40.2941 26.956C39.1901 25.996 38.6381 24.292 38.6381 21.844V12.16H35.9381V7.3H38.6381V2.764H45.1181V7.3ZM51.1861 7.3H57.6661V28H51.1861V7.3ZM51.0061 0.819998H57.8461V5.716H51.0061V0.819998ZM61.9777 28V12.16H59.8177V7.3H61.9777V6.364C61.9777 4.876 62.2657 3.712 62.8417 2.872C63.4177 2.032 64.3297 1.432 65.5777 1.072C66.8257 0.711999 68.4697 0.532 70.5097 0.532C70.9897 0.532 71.4937 0.567999 72.0217 0.639998V5.284C71.5177 5.212 71.0497 5.176 70.6177 5.176C69.9217 5.176 69.3817 5.308 68.9977 5.572C68.6377 5.812 68.4577 6.232 68.4577 6.832V7.3H80.6617V28H74.1817V12.16H68.4577V28H61.9777ZM74.0017 0.819998H80.8417V5.716H74.0017V0.819998ZM91.9178 28.36C90.6218 28.36 89.4218 28.192 88.3178 27.856C87.2138 27.52 86.2418 26.956 85.4018 26.164C84.5858 25.372 83.9498 24.28 83.4938 22.888C83.0378 21.496 82.8098 19.744 82.8098 17.632C82.8098 15.568 83.0738 13.852 83.6018 12.484C84.1538 11.116 84.8978 10.036 85.8338 9.244C86.7698 8.452 87.8258 7.888 89.0018 7.552C90.1778 7.192 91.4138 7.012 92.7098 7.012C93.5498 7.012 94.3178 7.072 95.0138 7.192C95.7098 7.312 96.4298 7.492 97.1738 7.732V15.832H93.4658L92.7458 12.088C91.6658 12.088 90.8498 12.496 90.2978 13.312C89.7698 14.128 89.5058 15.592 89.5058 17.704C89.5058 19.216 89.6978 20.38 90.0818 21.196C90.4658 22.012 91.0058 22.564 91.7018 22.852C92.3978 23.14 93.2258 23.248 94.1858 23.176C95.1458 23.08 96.1898 22.888 97.3178 22.6V27.712C96.5738 27.928 95.6978 28.084 94.6898 28.18C93.6818 28.3 92.7578 28.36 91.9178 28.36ZM99.5611 7.3H106.041V28H99.5611V7.3ZM99.3811 0.819998H106.221V5.716H99.3811V0.819998ZM113.737 28.36C112.777 28.36 111.877 28.12 111.037 27.64C110.197 27.136 109.513 26.416 108.985 25.48C108.457 24.544 108.193 23.416 108.193 22.096C108.193 20.032 108.913 18.472 110.353 17.416C111.817 16.36 113.701 15.832 116.005 15.832H117.553V13.852C117.553 13.156 117.313 12.688 116.833 12.448C116.353 12.184 115.741 12.052 114.997 12.052C114.085 12.052 113.209 12.136 112.369 12.304C111.529 12.472 110.689 12.712 109.849 13.024V7.984C110.929 7.744 112.045 7.528 113.197 7.336C114.373 7.12 115.549 7.012 116.725 7.012C118.045 7.012 119.257 7.18 120.361 7.516C121.465 7.828 122.353 8.404 123.025 9.244C123.697 10.084 124.033 11.284 124.033 12.844V28H118.417L117.985 26.452C117.385 27.1 116.713 27.58 115.969 27.892C115.225 28.204 114.481 28.36 113.737 28.36ZM116.257 23.608C116.737 23.608 117.169 23.392 117.553 22.96V19.396H117.085C116.365 19.396 115.753 19.576 115.249 19.936C114.745 20.272 114.493 20.788 114.493 21.484C114.493 22.156 114.673 22.684 115.033 23.068C115.393 23.428 115.801 23.608 116.257 23.608ZM133.217 28H126.737V1.684L133.217 0.819998V28ZM145.268 2.08H152.288V28H145.268V2.08ZM161.33 8.704C162.746 7.576 164.282 7.012 165.938 7.012C167.594 7.012 168.962 7.528 170.042 8.56C171.146 9.592 171.698 11.14 171.698 13.204V28H165.218V14.248C165.218 12.784 164.558 12.052 163.238 12.052C162.71 12.052 162.242 12.184 161.834 12.448V28H155.354V7.3H160.862L161.33 8.704ZM182.509 7.3H186.433V12.16H182.509V21.124C182.509 21.796 182.677 22.288 183.013 22.6C183.373 22.912 183.937 23.068 184.705 23.068C185.089 23.068 185.425 23.056 185.713 23.032C186.001 22.984 186.241 22.936 186.433 22.888V27.676C185.857 27.868 185.245 28.024 184.597 28.144C183.973 28.288 183.337 28.36 182.689 28.36C180.481 28.36 178.813 27.892 177.685 26.956C176.581 25.996 176.029 24.292 176.029 21.844V12.16H173.329V7.3H176.029V2.764H182.509V7.3ZM197.361 28.36C195.945 28.36 194.649 28.204 193.473 27.892C192.321 27.58 191.325 27.028 190.485 26.236C189.645 25.444 188.997 24.352 188.541 22.96C188.085 21.568 187.857 19.792 187.857 17.632C187.857 14.128 188.505 11.488 189.801 9.712C191.121 7.912 193.233 7.012 196.137 7.012C198.777 7.012 200.685 7.744 201.861 9.208C203.061 10.648 203.661 12.796 203.661 15.652C203.661 16.324 203.637 17.02 203.589 17.74C203.541 18.436 203.457 19.072 203.337 19.648H194.733C194.877 21.112 195.285 22.096 195.957 22.6C196.629 23.08 197.757 23.32 199.341 23.32C199.893 23.32 200.457 23.272 201.033 23.176C201.633 23.08 202.209 22.972 202.761 22.852V27.748C201.921 27.916 201.033 28.06 200.097 28.18C199.185 28.3 198.273 28.36 197.361 28.36ZM196.389 11.764C195.429 11.764 194.865 13.06 194.697 15.652H197.649C197.649 15.124 197.625 14.56 197.577 13.96C197.553 13.36 197.445 12.844 197.253 12.412C197.085 11.98 196.797 11.764 196.389 11.764ZM212.108 28H205.628V1.684L212.108 0.819998V28ZM221.459 28H214.979V1.684L221.459 0.819998V28ZM224.331 7.3H230.811V28H224.331V7.3ZM224.151 0.819998H230.991V5.716H224.151V0.819998ZM242.358 33.76C241.374 33.76 240.402 33.712 239.442 33.616C238.482 33.544 237.69 33.46 237.066 33.364C236.442 33.292 236.13 33.256 236.13 33.256V28.36C236.946 28.456 237.69 28.528 238.362 28.576C239.058 28.648 239.778 28.684 240.522 28.684C241.578 28.684 242.394 28.48 242.97 28.072C243.546 27.688 243.834 27.052 243.834 26.164V25.048C242.754 26.056 241.362 26.56 239.658 26.56C238.362 26.56 237.282 26.308 236.418 25.804C235.578 25.276 234.918 24.568 234.438 23.68C233.958 22.768 233.61 21.748 233.394 20.62C233.202 19.468 233.106 18.268 233.106 17.02C233.106 13.42 233.706 10.852 234.906 9.316C236.13 7.78 237.894 7.012 240.198 7.012C241.902 7.012 243.282 7.576 244.338 8.704L244.806 7.3H250.314V25.48C250.314 28.24 249.618 30.304 248.226 31.672C246.858 33.064 244.902 33.76 242.358 33.76ZM241.854 21.88C242.118 21.88 242.418 21.844 242.754 21.772C243.09 21.676 243.45 21.532 243.834 21.34V12.232C243.57 12.184 243.306 12.148 243.042 12.124C242.802 12.076 242.574 12.052 242.358 12.052C241.254 12.052 240.546 12.496 240.234 13.384C239.946 14.272 239.802 15.604 239.802 17.38C239.802 19.012 239.946 20.176 240.234 20.872C240.522 21.544 241.062 21.88 241.854 21.88ZM261.978 28.36C260.562 28.36 259.266 28.204 258.09 27.892C256.938 27.58 255.942 27.028 255.102 26.236C254.262 25.444 253.614 24.352 253.158 22.96C252.702 21.568 252.474 19.792 252.474 17.632C252.474 14.128 253.122 11.488 254.418 9.712C255.738 7.912 257.85 7.012 260.754 7.012C263.394 7.012 265.302 7.744 266.478 9.208C267.678 10.648 268.278 12.796 268.278 15.652C268.278 16.324 268.254 17.02 268.206 17.74C268.158 18.436 268.074 19.072 267.954 19.648H259.35C259.494 21.112 259.902 22.096 260.574 22.6C261.246 23.08 262.374 23.32 263.958 23.32C264.51 23.32 265.074 23.272 265.65 23.176C266.25 23.08 266.826 22.972 267.378 22.852V27.748C266.538 27.916 265.65 28.06 264.714 28.18C263.802 28.3 262.89 28.36 261.978 28.36ZM261.006 11.764C260.046 11.764 259.482 13.06 259.314 15.652H262.266C262.266 15.124 262.242 14.56 262.194 13.96C262.17 13.36 262.062 12.844 261.87 12.412C261.702 11.98 261.414 11.764 261.006 11.764ZM276.221 8.704C277.637 7.576 279.173 7.012 280.829 7.012C282.485 7.012 283.853 7.528 284.933 8.56C286.037 9.592 286.589 11.14 286.589 13.204V28H280.109V14.248C280.109 12.784 279.449 12.052 278.129 12.052C277.601 12.052 277.133 12.184 276.725 12.448V28H270.245V7.3H275.753L276.221 8.704ZM297.687 28.36C296.391 28.36 295.191 28.192 294.087 27.856C292.983 27.52 292.011 26.956 291.171 26.164C290.355 25.372 289.719 24.28 289.263 22.888C288.807 21.496 288.579 19.744 288.579 17.632C288.579 15.568 288.843 13.852 289.371 12.484C289.923 11.116 290.667 10.036 291.603 9.244C292.539 8.452 293.595 7.888 294.771 7.552C295.947 7.192 297.183 7.012 298.479 7.012C299.319 7.012 300.087 7.072 300.783 7.192C301.479 7.312 302.199 7.492 302.943 7.732V15.832H299.235L298.515 12.088C297.435 12.088 296.619 12.496 296.067 13.312C295.539 14.128 295.275 15.592 295.275 17.704C295.275 19.216 295.467 20.38 295.851 21.196C296.235 22.012 296.775 22.564 297.471 22.852C298.167 23.14 298.995 23.248 299.955 23.176C300.915 23.08 301.959 22.888 303.087 22.6V27.712C302.343 27.928 301.467 28.084 300.459 28.18C299.451 28.3 298.527 28.36 297.687 28.36ZM314.115 28.36C312.699 28.36 311.403 28.204 310.227 27.892C309.075 27.58 308.079 27.028 307.239 26.236C306.399 25.444 305.751 24.352 305.295 22.96C304.839 21.568 304.611 19.792 304.611 17.632C304.611 14.128 305.259 11.488 306.555 9.712C307.875 7.912 309.987 7.012 312.891 7.012C315.531 7.012 317.439 7.744 318.615 9.208C319.815 10.648 320.415 12.796 320.415 15.652C320.415 16.324 320.391 17.02 320.343 17.74C320.295 18.436 320.211 19.072 320.091 19.648H311.487C311.631 21.112 312.039 22.096 312.711 22.6C313.383 23.08 314.511 23.32 316.095 23.32C316.647 23.32 317.211 23.272 317.787 23.176C318.387 23.08 318.963 22.972 319.515 22.852V27.748C318.675 27.916 317.787 28.06 316.851 28.18C315.939 28.3 315.027 28.36 314.115 28.36ZM313.143 11.764C312.183 11.764 311.619 13.06 311.451 15.652H314.403C314.403 15.124 314.379 14.56 314.331 13.96C314.307 13.36 314.199 12.844 314.007 12.412C313.839 11.98 313.551 11.764 313.143 11.764Z"/>
</svg>
