<svg width="127" height="29" viewBox="0 0 127 29" fill="none" xmlns="http://www.w3.org/2000/svg">
  <path fill="white" d="M2.48 28V7.012L0.5 2.08H11.3C14.204 2.08 16.316 2.668 17.636 3.844C18.956 4.996 19.616 6.556 19.616 8.524C19.616 9.796 19.376 10.948 18.896 11.98C18.416 13.012 17.504 13.876 16.16 14.572V14.644C17.792 15.172 18.944 15.952 19.616 16.984C20.312 18.016 20.66 19.372 20.66 21.052C20.66 23.284 19.844 25 18.212 26.2C16.58 27.4 14.096 28 10.76 28H2.48ZM9.5 12.736H9.824C10.904 12.736 11.684 12.532 12.164 12.124C12.668 11.692 12.92 10.948 12.92 9.892C12.92 8.812 12.668 8.068 12.164 7.66C11.684 7.228 10.904 7.012 9.824 7.012H9.5V12.736ZM9.5 23.248H9.86C11.06 23.248 11.936 23.032 12.488 22.6C13.064 22.144 13.352 21.352 13.352 20.224C13.352 19.072 13.064 18.28 12.488 17.848C11.936 17.392 11.06 17.164 9.86 17.164H9.5V23.248ZM27.7874 28.36C26.8274 28.36 25.9274 28.12 25.0874 27.64C24.2474 27.136 23.5634 26.416 23.0354 25.48C22.5074 24.544 22.2434 23.416 22.2434 22.096C22.2434 20.032 22.9634 18.472 24.4034 17.416C25.8674 16.36 27.7514 15.832 30.0554 15.832H31.6034V13.852C31.6034 13.156 31.3634 12.688 30.8834 12.448C30.4034 12.184 29.7914 12.052 29.0474 12.052C28.1354 12.052 27.2594 12.136 26.4194 12.304C25.5794 12.472 24.7394 12.712 23.8994 13.024V7.984C24.9794 7.744 26.0954 7.528 27.2474 7.336C28.4234 7.12 29.5994 7.012 30.7754 7.012C32.0954 7.012 33.3074 7.18 34.4114 7.516C35.5154 7.828 36.4034 8.404 37.0754 9.244C37.7474 10.084 38.0834 11.284 38.0834 12.844V28H32.4674L32.0354 26.452C31.4354 27.1 30.7634 27.58 30.0194 27.892C29.2754 28.204 28.5314 28.36 27.7874 28.36ZM30.3074 23.608C30.7874 23.608 31.2194 23.392 31.6034 22.96V19.396H31.1354C30.4154 19.396 29.8034 19.576 29.2994 19.936C28.7954 20.272 28.5434 20.788 28.5434 21.484C28.5434 22.156 28.7234 22.684 29.0834 23.068C29.4434 23.428 29.8514 23.608 30.3074 23.608ZM49.1757 28.36C47.8797 28.36 46.6797 28.192 45.5757 27.856C44.4717 27.52 43.4997 26.956 42.6597 26.164C41.8437 25.372 41.2077 24.28 40.7517 22.888C40.2957 21.496 40.0677 19.744 40.0677 17.632C40.0677 15.568 40.3317 13.852 40.8597 12.484C41.4117 11.116 42.1557 10.036 43.0917 9.244C44.0277 8.452 45.0837 7.888 46.2597 7.552C47.4357 7.192 48.6717 7.012 49.9677 7.012C50.8077 7.012 51.5757 7.072 52.2717 7.192C52.9677 7.312 53.6877 7.492 54.4317 7.732V15.832H50.7237L50.0037 12.088C48.9237 12.088 48.1077 12.496 47.5557 13.312C47.0277 14.128 46.7637 15.592 46.7637 17.704C46.7637 19.216 46.9557 20.38 47.3397 21.196C47.7237 22.012 48.2637 22.564 48.9597 22.852C49.6557 23.14 50.4837 23.248 51.4437 23.176C52.4037 23.08 53.4477 22.888 54.5757 22.6V27.712C53.8317 27.928 52.9557 28.084 51.9477 28.18C50.9397 28.3 50.0157 28.36 49.1757 28.36ZM63.2989 16.3L66.7549 7.3H73.4869L69.4189 17.416L73.4869 28H66.6109L63.2989 18.712V28H56.8189V1.684L63.2989 0.819998V16.3ZM83.0756 28.36C81.6596 28.36 80.3636 28.204 79.1876 27.892C78.0356 27.58 77.0396 27.028 76.1996 26.236C75.3596 25.444 74.7116 24.352 74.2556 22.96C73.7996 21.568 73.5716 19.792 73.5716 17.632C73.5716 14.128 74.2196 11.488 75.5156 9.712C76.8356 7.912 78.9476 7.012 81.8516 7.012C84.4916 7.012 86.3996 7.744 87.5756 9.208C88.7756 10.648 89.3756 12.796 89.3756 15.652C89.3756 16.324 89.3516 17.02 89.3036 17.74C89.2556 18.436 89.1716 19.072 89.0516 19.648H80.4476C80.5916 21.112 80.9996 22.096 81.6716 22.6C82.3436 23.08 83.4716 23.32 85.0556 23.32C85.6076 23.32 86.1716 23.272 86.7476 23.176C87.3476 23.08 87.9236 22.972 88.4756 22.852V27.748C87.6356 27.916 86.7476 28.06 85.8116 28.18C84.8996 28.3 83.9876 28.36 83.0756 28.36ZM82.1036 11.764C81.1436 11.764 80.5796 13.06 80.4116 15.652H83.3636C83.3636 15.124 83.3396 14.56 83.2916 13.96C83.2676 13.36 83.1596 12.844 82.9676 12.412C82.7996 11.98 82.5116 11.764 82.1036 11.764ZM97.3183 8.704C98.7343 7.576 100.27 7.012 101.926 7.012C103.582 7.012 104.95 7.528 106.03 8.56C107.134 9.592 107.686 11.14 107.686 13.204V28H101.206V14.248C101.206 12.784 100.546 12.052 99.2263 12.052C98.6983 12.052 98.2303 12.184 97.8223 12.448V28H91.3423V7.3H96.8503L97.3183 8.704ZM116.301 28.36C114.981 28.36 113.889 28.084 113.025 27.532C112.185 26.956 111.513 26.176 111.009 25.192C110.529 24.208 110.181 23.104 109.965 21.88C109.773 20.632 109.677 19.324 109.677 17.956C109.677 14.02 110.289 11.212 111.513 9.532C112.761 7.852 114.549 7.012 116.877 7.012C117.933 7.012 119.109 7.228 120.405 7.66V1.792L126.885 0.819998V28H121.377L120.837 26.416C120.309 27.016 119.649 27.496 118.857 27.856C118.065 28.192 117.213 28.36 116.301 28.36ZM118.425 23.32C118.689 23.32 118.989 23.272 119.325 23.176C119.661 23.08 120.021 22.924 120.405 22.708V12.268C119.877 12.124 119.385 12.052 118.929 12.052C117.825 12.052 117.117 12.556 116.805 13.564C116.517 14.572 116.373 16.096 116.373 18.136C116.373 20.032 116.517 21.376 116.805 22.168C117.093 22.936 117.633 23.32 118.425 23.32Z"/>
</svg>
