<svg width="164" height="29" viewBox="0 0 164 29" fill="none" xmlns="http://www.w3.org/2000/svg">
  <path fill="white" d="M2.48 28V7.012L0.5 2.08H11.3C14.204 2.08 16.316 2.668 17.636 3.844C18.956 4.996 19.616 6.556 19.616 8.524C19.616 9.796 19.376 10.948 18.896 11.98C18.416 13.012 17.504 13.876 16.16 14.572V14.644C17.792 15.172 18.944 15.952 19.616 16.984C20.312 18.016 20.66 19.372 20.66 21.052C20.66 23.284 19.844 25 18.212 26.2C16.58 27.4 14.096 28 10.76 28H2.48ZM9.5 12.736H9.824C10.904 12.736 11.684 12.532 12.164 12.124C12.668 11.692 12.92 10.948 12.92 9.892C12.92 8.812 12.668 8.068 12.164 7.66C11.684 7.228 10.904 7.012 9.824 7.012H9.5V12.736ZM9.5 23.248H9.86C11.06 23.248 11.936 23.032 12.488 22.6C13.064 22.144 13.352 21.352 13.352 20.224C13.352 19.072 13.064 18.28 12.488 17.848C11.936 17.392 11.06 17.164 9.86 17.164H9.5V23.248ZM29.4434 28H22.9634V1.684L29.4434 0.819998V28ZM40.487 28.36C38.351 28.36 36.623 28 35.303 27.28C34.007 26.56 33.059 25.42 32.459 23.86C31.883 22.276 31.595 20.212 31.595 17.668C31.595 15.124 31.883 13.072 32.459 11.512C33.059 9.952 34.007 8.812 35.303 8.092C36.623 7.372 38.351 7.012 40.487 7.012C42.647 7.012 44.375 7.372 45.671 8.092C46.967 8.812 47.903 9.952 48.479 11.512C49.079 13.072 49.379 15.124 49.379 17.668C49.379 20.212 49.079 22.276 48.479 23.86C47.903 25.42 46.967 26.56 45.671 27.28C44.375 28 42.647 28.36 40.487 28.36ZM40.451 23.284C41.267 23.284 41.843 22.852 42.179 21.988C42.515 21.1 42.683 19.672 42.683 17.704C42.683 15.712 42.515 14.284 42.179 13.42C41.843 12.532 41.267 12.088 40.451 12.088C39.659 12.088 39.095 12.532 38.759 13.42C38.447 14.284 38.291 15.712 38.291 17.704C38.291 19.672 38.447 21.1 38.759 21.988C39.095 22.852 39.659 23.284 40.451 23.284ZM59.9335 28.36C58.6375 28.36 57.4375 28.192 56.3335 27.856C55.2295 27.52 54.2575 26.956 53.4175 26.164C52.6015 25.372 51.9655 24.28 51.5095 22.888C51.0535 21.496 50.8255 19.744 50.8255 17.632C50.8255 15.568 51.0895 13.852 51.6175 12.484C52.1695 11.116 52.9135 10.036 53.8495 9.244C54.7855 8.452 55.8415 7.888 57.0175 7.552C58.1935 7.192 59.4295 7.012 60.7255 7.012C61.5655 7.012 62.3335 7.072 63.0295 7.192C63.7255 7.312 64.4455 7.492 65.1895 7.732V15.832H61.4815L60.7615 12.088C59.6815 12.088 58.8655 12.496 58.3135 13.312C57.7855 14.128 57.5215 15.592 57.5215 17.704C57.5215 19.216 57.7135 20.38 58.0975 21.196C58.4815 22.012 59.0215 22.564 59.7175 22.852C60.4135 23.14 61.2415 23.248 62.2015 23.176C63.1615 23.08 64.2055 22.888 65.3335 22.6V27.712C64.5895 27.928 63.7135 28.084 62.7055 28.18C61.6975 28.3 60.7735 28.36 59.9335 28.36ZM74.0567 16.3L77.5127 7.3H84.2447L80.1767 17.416L84.2447 28H77.3687L74.0567 18.712V28H67.5767V1.684L74.0567 0.819998V16.3ZM93.4374 28.36C92.1414 28.36 90.9414 28.192 89.8374 27.856C88.7334 27.52 87.7614 26.956 86.9214 26.164C86.1054 25.372 85.4694 24.28 85.0134 22.888C84.5574 21.496 84.3294 19.744 84.3294 17.632C84.3294 15.568 84.5934 13.852 85.1214 12.484C85.6734 11.116 86.4174 10.036 87.3534 9.244C88.2894 8.452 89.3454 7.888 90.5214 7.552C91.6974 7.192 92.9334 7.012 94.2294 7.012C95.0694 7.012 95.8374 7.072 96.5334 7.192C97.2294 7.312 97.9494 7.492 98.6934 7.732V15.832H94.9854L94.2654 12.088C93.1854 12.088 92.3694 12.496 91.8174 13.312C91.2894 14.128 91.0254 15.592 91.0254 17.704C91.0254 19.216 91.2174 20.38 91.6014 21.196C91.9854 22.012 92.5254 22.564 93.2214 22.852C93.9174 23.14 94.7454 23.248 95.7054 23.176C96.6654 23.08 97.7094 22.888 98.8374 22.6V27.712C98.0934 27.928 97.2174 28.084 96.2094 28.18C95.2014 28.3 94.2774 28.36 93.4374 28.36ZM107.561 8.344C108.857 7.456 110.225 7.012 111.665 7.012C113.321 7.012 114.689 7.528 115.769 8.56C116.873 9.592 117.425 11.14 117.425 13.204V28H110.945V14.248C110.945 12.784 110.285 12.052 108.965 12.052C108.437 12.052 107.969 12.184 107.561 12.448V28H101.081V1.756L107.561 0.819998V8.344ZM124.959 28.36C123.999 28.36 123.099 28.12 122.259 27.64C121.419 27.136 120.735 26.416 120.207 25.48C119.679 24.544 119.415 23.416 119.415 22.096C119.415 20.032 120.135 18.472 121.575 17.416C123.039 16.36 124.923 15.832 127.227 15.832H128.775V13.852C128.775 13.156 128.535 12.688 128.055 12.448C127.575 12.184 126.963 12.052 126.219 12.052C125.307 12.052 124.431 12.136 123.591 12.304C122.751 12.472 121.911 12.712 121.071 13.024V7.984C122.151 7.744 123.267 7.528 124.419 7.336C125.595 7.12 126.771 7.012 127.947 7.012C129.267 7.012 130.479 7.18 131.583 7.516C132.687 7.828 133.575 8.404 134.247 9.244C134.919 10.084 135.255 11.284 135.255 12.844V28H129.639L129.207 26.452C128.607 27.1 127.935 27.58 127.191 27.892C126.447 28.204 125.703 28.36 124.959 28.36ZM127.479 23.608C127.959 23.608 128.391 23.392 128.775 22.96V19.396H128.307C127.587 19.396 126.975 19.576 126.471 19.936C125.967 20.272 125.715 20.788 125.715 21.484C125.715 22.156 125.895 22.684 126.255 23.068C126.615 23.428 127.023 23.608 127.479 23.608ZM137.96 7.3H144.44V28H137.96V7.3ZM137.78 0.819998H144.62V5.716H137.78V0.819998ZM153.287 8.704C154.703 7.576 156.239 7.012 157.895 7.012C159.551 7.012 160.919 7.528 161.999 8.56C163.103 9.592 163.655 11.14 163.655 13.204V28H157.175V14.248C157.175 12.784 156.515 12.052 155.195 12.052C154.667 12.052 154.199 12.184 153.791 12.448V28H147.311V7.3H152.819L153.287 8.704Z"/>
</svg>
