<svg width="202" height="29" viewBox="0 0 202 29" fill="none" xmlns="http://www.w3.org/2000/svg">
  <path fill="white" d="M0.22 15.22C0.22 11.812 0.616 9.136 1.408 7.192C2.2 5.224 3.388 3.832 4.972 3.016C6.58 2.2 8.572 1.792 10.948 1.792C11.716 1.792 12.592 1.84 13.576 1.936C14.584 2.008 15.556 2.152 16.492 2.368V11.872H12.136L11.56 7.516C10.912 7.516 10.348 7.6 9.868 7.768C9.412 7.912 9.028 8.236 8.716 8.74C8.404 9.244 8.164 10.012 7.996 11.044C7.852 12.076 7.78 13.456 7.78 15.184C7.78 17.056 7.984 18.532 8.392 19.612C8.8 20.668 9.412 21.424 10.228 21.88C11.068 22.312 12.136 22.528 13.432 22.528C14.008 22.528 14.56 22.492 15.088 22.42C15.616 22.348 16.18 22.264 16.78 22.168V27.856C16.084 28.024 15.244 28.144 14.26 28.216C13.276 28.312 12.4 28.36 11.632 28.36C7.528 28.36 4.6 27.256 2.848 25.048C1.096 22.84 0.22 19.564 0.22 15.22ZM25.5958 28H19.1158V1.684L25.5958 0.819998V28ZM36.6393 28.36C34.5033 28.36 32.7753 28 31.4553 27.28C30.1593 26.56 29.2113 25.42 28.6113 23.86C28.0353 22.276 27.7473 20.212 27.7473 17.668C27.7473 15.124 28.0353 13.072 28.6113 11.512C29.2113 9.952 30.1593 8.812 31.4553 8.092C32.7753 7.372 34.5033 7.012 36.6393 7.012C38.7993 7.012 40.5273 7.372 41.8233 8.092C43.1193 8.812 44.0553 9.952 44.6313 11.512C45.2313 13.072 45.5313 15.124 45.5313 17.668C45.5313 20.212 45.2313 22.276 44.6313 23.86C44.0553 25.42 43.1193 26.56 41.8233 27.28C40.5273 28 38.7993 28.36 36.6393 28.36ZM36.6033 23.284C37.4193 23.284 37.9953 22.852 38.3313 21.988C38.6673 21.1 38.8353 19.672 38.8353 17.704C38.8353 15.712 38.6673 14.284 38.3313 13.42C37.9953 12.532 37.4193 12.088 36.6033 12.088C35.8113 12.088 35.2473 12.532 34.9113 13.42C34.5993 14.284 34.4433 15.712 34.4433 17.704C34.4433 19.672 34.5993 21.1 34.9113 21.988C35.2473 22.852 35.8113 23.284 36.6033 23.284ZM57.5258 26.596C56.8538 27.148 56.1338 27.58 55.3658 27.892C54.5978 28.204 53.8298 28.36 53.0618 28.36C51.4778 28.36 50.1578 27.844 49.1018 26.812C48.0458 25.78 47.5178 24.232 47.5178 22.168V7.3H53.9978V21.052C53.9978 22.516 54.5858 23.248 55.7618 23.248C56.2178 23.248 56.6378 23.116 57.0218 22.852V7.3H63.5018V28H57.9938L57.5258 26.596ZM72.2698 28.36C70.9498 28.36 69.8578 28.084 68.9938 27.532C68.1538 26.956 67.4818 26.176 66.9778 25.192C66.4978 24.208 66.1498 23.104 65.9338 21.88C65.7418 20.632 65.6458 19.324 65.6458 17.956C65.6458 14.02 66.2578 11.212 67.4818 9.532C68.7298 7.852 70.5178 7.012 72.8458 7.012C73.9018 7.012 75.0778 7.228 76.3738 7.66V1.792L82.8538 0.819998V28H77.3458L76.8058 26.416C76.2778 27.016 75.6178 27.496 74.8258 27.856C74.0338 28.192 73.1818 28.36 72.2698 28.36ZM74.3938 23.32C74.6578 23.32 74.9578 23.272 75.2938 23.176C75.6298 23.08 75.9898 22.924 76.3738 22.708V12.268C75.8458 12.124 75.3538 12.052 74.8978 12.052C73.7938 12.052 73.0858 12.556 72.7738 13.564C72.4858 14.572 72.3418 16.096 72.3418 18.136C72.3418 20.032 72.4858 21.376 72.7738 22.168C73.0618 22.936 73.6018 23.32 74.3938 23.32ZM110.073 17.2C110.337 16.216 110.505 15.232 110.577 14.248C110.673 13.264 110.721 12.436 110.721 11.764H117.417C117.417 12.676 117.333 13.744 117.165 14.968C116.997 16.168 116.697 17.392 116.265 18.64C115.833 19.888 115.233 21.064 114.465 22.168L119.613 27.964H110.433L109.281 26.632C108.609 27.184 107.745 27.616 106.689 27.928C105.633 28.216 104.469 28.36 103.197 28.36C101.493 28.36 100.017 27.976 98.7689 27.208C97.5209 26.416 96.5609 25.408 95.8889 24.184C95.2409 22.96 94.9169 21.676 94.9169 20.332C94.9169 19.492 95.0369 18.652 95.2769 17.812C95.5169 16.948 95.9249 16.156 96.5009 15.436C97.1009 14.716 97.9049 14.14 98.9129 13.708C98.4809 12.892 98.1449 12.1 97.9049 11.332C97.6889 10.564 97.5809 9.808 97.5809 9.064C97.5809 7.36 97.9529 5.98 98.6969 4.924C99.4409 3.844 100.437 3.064 101.685 2.584C102.957 2.08 104.385 1.828 105.969 1.828C106.857 1.828 107.769 1.9 108.705 2.044C109.641 2.164 110.589 2.356 111.549 2.62L111.045 8.236C110.541 8.044 110.013 7.888 109.461 7.768C108.933 7.648 108.417 7.588 107.913 7.588C106.953 7.588 106.185 7.78 105.609 8.164C105.057 8.524 104.781 9.112 104.781 9.928C104.781 10.744 105.309 11.764 106.365 12.988L110.073 17.2ZM105.609 23.068C105.729 23.068 105.849 23.068 105.969 23.068C106.113 23.068 106.257 23.056 106.401 23.032L101.757 17.56C101.637 18.04 101.577 18.52 101.577 19C101.577 20.104 101.901 21.064 102.549 21.88C103.197 22.672 104.217 23.068 105.609 23.068ZM130.776 2.08H137.796V28H130.776V2.08ZM146.838 8.704C148.254 7.576 149.79 7.012 151.446 7.012C153.102 7.012 154.47 7.528 155.55 8.56C156.654 9.592 157.206 11.14 157.206 13.204V28H150.726V14.248C150.726 12.784 150.066 12.052 148.746 12.052C148.218 12.052 147.75 12.184 147.342 12.448V28H140.862V7.3H146.37L146.838 8.704ZM161.357 28V12.16H159.197V7.3H161.357V6.364C161.357 4.876 161.645 3.712 162.221 2.872C162.797 2.032 163.709 1.432 164.957 1.072C166.205 0.711999 167.849 0.532 169.889 0.532C170.369 0.532 170.873 0.567999 171.401 0.639998V5.284C170.897 5.212 170.429 5.176 169.997 5.176C169.301 5.176 168.761 5.308 168.377 5.572C168.017 5.812 167.837 6.232 167.837 6.832V7.3H171.401V12.16H167.837V28H161.357ZM173.557 28V7.3H179.065L179.785 10.18H179.857C180.241 8.98 180.913 8.104 181.873 7.552C182.857 7 184.093 6.856 185.581 7.12V13.24C184.645 13.24 183.673 13.3 182.665 13.42C181.681 13.54 180.805 13.708 180.037 13.924V28H173.557ZM191.284 28.36C190.324 28.36 189.424 28.12 188.584 27.64C187.744 27.136 187.06 26.416 186.532 25.48C186.004 24.544 185.74 23.416 185.74 22.096C185.74 20.032 186.46 18.472 187.9 17.416C189.364 16.36 191.248 15.832 193.552 15.832H195.1V13.852C195.1 13.156 194.86 12.688 194.38 12.448C193.9 12.184 193.288 12.052 192.544 12.052C191.632 12.052 190.756 12.136 189.916 12.304C189.076 12.472 188.236 12.712 187.396 13.024V7.984C188.476 7.744 189.592 7.528 190.744 7.336C191.92 7.12 193.096 7.012 194.272 7.012C195.592 7.012 196.804 7.18 197.908 7.516C199.012 7.828 199.9 8.404 200.572 9.244C201.244 10.084 201.58 11.284 201.58 12.844V28H195.964L195.532 26.452C194.932 27.1 194.26 27.58 193.516 27.892C192.772 28.204 192.028 28.36 191.284 28.36ZM193.804 23.608C194.284 23.608 194.716 23.392 195.1 22.96V19.396H194.632C193.912 19.396 193.3 19.576 192.796 19.936C192.292 20.272 192.04 20.788 192.04 21.484C192.04 22.156 192.22 22.684 192.58 23.068C192.94 23.428 193.348 23.608 193.804 23.608Z"/>
</svg>
