<svg width="84" height="26" viewBox="0 0 84 26" fill="none" xmlns="http://www.w3.org/2000/svg">
  <path fill="white" d="M10.548 0.079999C13.02 0.079999 15.012 0.463999 16.524 1.232C18.036 1.976 19.14 3.26 19.836 5.084C20.532 6.884 20.88 9.368 20.88 12.536C20.88 15.944 20.532 18.632 19.836 20.6C19.14 22.568 18.036 23.96 16.524 24.776C15.012 25.592 13.02 26 10.548 26H1.98V5.012L0 0.079999H10.548ZM10.116 20.24C10.884 20.24 11.496 20.012 11.952 19.556C12.432 19.076 12.78 18.284 12.996 17.18C13.212 16.052 13.32 14.504 13.32 12.536C13.32 10.736 13.224 9.356 13.032 8.396C12.84 7.412 12.516 6.74 12.06 6.38C11.604 6.02 10.956 5.84 10.116 5.84H9V20.24H10.116ZM31.8527 0.079999C34.3247 0.079999 36.3167 0.463999 37.8287 1.232C39.3407 1.976 40.4447 3.26 41.1407 5.084C41.8367 6.884 42.1847 9.368 42.1847 12.536C42.1847 15.944 41.8367 18.632 41.1407 20.6C40.4447 22.568 39.3407 23.96 37.8287 24.776C36.3167 25.592 34.3247 26 31.8527 26H23.2847V5.012L21.3047 0.079999H31.8527ZM31.4207 20.24C32.1887 20.24 32.8007 20.012 33.2567 19.556C33.7367 19.076 34.0847 18.284 34.3007 17.18C34.5167 16.052 34.6247 14.504 34.6247 12.536C34.6247 10.736 34.5287 9.356 34.3367 8.396C34.1447 7.412 33.8207 6.74 33.3647 6.38C32.9087 6.02 32.2607 5.84 31.4207 5.84H30.3047V20.24H31.4207ZM44.5894 26V5.012L42.6094 0.079999H53.4094C56.3134 0.079999 58.4254 0.667999 59.7454 1.844C61.0654 2.996 61.7254 4.556 61.7254 6.524C61.7254 7.796 61.4854 8.948 61.0054 9.98C60.5254 11.012 59.6134 11.876 58.2694 12.572V12.644C59.9014 13.172 61.0534 13.952 61.7254 14.984C62.4214 16.016 62.7694 17.372 62.7694 19.052C62.7694 21.284 61.9534 23 60.3214 24.2C58.6894 25.4 56.2054 26 52.8694 26H44.5894ZM51.6094 10.736H51.9334C53.0134 10.736 53.7934 10.532 54.2734 10.124C54.7774 9.692 55.0294 8.948 55.0294 7.892C55.0294 6.812 54.7774 6.068 54.2734 5.66C53.7934 5.228 53.0134 5.012 51.9334 5.012H51.6094V10.736ZM51.6094 21.248H51.9694C53.1694 21.248 54.0454 21.032 54.5974 20.6C55.1734 20.144 55.4614 19.352 55.4614 18.224C55.4614 17.072 55.1734 16.28 54.5974 15.848C54.0454 15.392 53.1694 15.164 51.9694 15.164H51.6094V21.248ZM65.2613 26V5.012L63.2812 0.079999H74.0813C76.9853 0.079999 79.0973 0.667999 80.4173 1.844C81.7373 2.996 82.3973 4.556 82.3973 6.524C82.3973 7.796 82.1573 8.948 81.6773 9.98C81.1973 11.012 80.2853 11.876 78.9413 12.572V12.644C80.5733 13.172 81.7253 13.952 82.3973 14.984C83.0933 16.016 83.4413 17.372 83.4413 19.052C83.4413 21.284 82.6253 23 80.9933 24.2C79.3613 25.4 76.8773 26 73.5413 26H65.2613ZM72.2812 10.736H72.6053C73.6853 10.736 74.4653 10.532 74.9453 10.124C75.4493 9.692 75.7013 8.948 75.7013 7.892C75.7013 6.812 75.4493 6.068 74.9453 5.66C74.4653 5.228 73.6853 5.012 72.6053 5.012H72.2812V10.736ZM72.2812 21.248H72.6413C73.8413 21.248 74.7173 21.032 75.2693 20.6C75.8453 20.144 76.1333 19.352 76.1333 18.224C76.1333 17.072 75.8453 16.28 75.2693 15.848C74.7173 15.392 73.8413 15.164 72.6413 15.164H72.2812V21.248Z"/>
</svg>
