<svg width="148" height="29" viewBox="0 0 148 29" xmlns="http://www.w3.org/2000/svg">
  <path fill="white" d="M16.704 2.08L15.624 7.84H9V12.736H14.976L13.896 18.496H9V28H1.98V7.012L0 2.08H16.704ZM17.4009 28V7.3H22.9089L23.6289 10.18H23.7009C24.0849 8.98 24.7569 8.104 25.7169 7.552C26.7009 7 27.9369 6.856 29.4249 7.12V13.24C28.4889 13.24 27.5169 13.3 26.5089 13.42C25.5249 13.54 24.6489 13.708 23.8809 13.924V28H17.4009ZM39.5651 28.36C37.4291 28.36 35.7011 28 34.3811 27.28C33.0851 26.56 32.1371 25.42 31.5371 23.86C30.9611 22.276 30.6731 20.212 30.6731 17.668C30.6731 15.124 30.9611 13.072 31.5371 11.512C32.1371 9.952 33.0851 8.812 34.3811 8.092C35.7011 7.372 37.4291 7.012 39.5651 7.012C41.7251 7.012 43.4531 7.372 44.7491 8.092C46.0451 8.812 46.9811 9.952 47.5571 11.512C48.1571 13.072 48.4571 15.124 48.4571 17.668C48.4571 20.212 48.1571 22.276 47.5571 23.86C46.9811 25.42 46.0451 26.56 44.7491 27.28C43.4531 28 41.7251 28.36 39.5651 28.36ZM39.5291 23.284C40.3451 23.284 40.9211 22.852 41.2571 21.988C41.5931 21.1 41.7611 19.672 41.7611 17.704C41.7611 15.712 41.5931 14.284 41.2571 13.42C40.9211 12.532 40.3451 12.088 39.5291 12.088C38.7371 12.088 38.1731 12.532 37.8371 13.42C37.5251 14.284 37.3691 15.712 37.3691 17.704C37.3691 19.672 37.5251 21.1 37.8371 21.988C38.1731 22.852 38.7371 23.284 39.5291 23.284ZM56.5996 8.704C58.0156 7.576 59.5516 7.012 61.2076 7.012C62.8636 7.012 64.2316 7.528 65.3116 8.56C66.4156 9.592 66.9676 11.14 66.9676 13.204V28H60.4876V14.248C60.4876 12.784 59.8276 12.052 58.5076 12.052C57.9796 12.052 57.5116 12.184 57.1036 12.448V28H50.6236V7.3H56.1316L56.5996 8.704ZM77.7783 7.3H81.7023V12.16H77.7783V21.124C77.7783 21.796 77.9463 22.288 78.2823 22.6C78.6423 22.912 79.2063 23.068 79.9743 23.068C80.3583 23.068 80.6943 23.056 80.9823 23.032C81.2703 22.984 81.5103 22.936 81.7023 22.888V27.676C81.1263 27.868 80.5143 28.024 79.8663 28.144C79.2423 28.288 78.6063 28.36 77.9583 28.36C75.7503 28.36 74.0823 27.892 72.9543 26.956C71.8503 25.996 71.2983 24.292 71.2983 21.844V12.16H68.5983V7.3H71.2983V2.764H77.7783V7.3ZM92.1263 13.312V18.316H83.4863V13.312H92.1263ZM103.423 28.36C102.007 28.36 100.711 28.204 99.5352 27.892C98.3832 27.58 97.3872 27.028 96.5472 26.236C95.7072 25.444 95.0592 24.352 94.6032 22.96C94.1472 21.568 93.9192 19.792 93.9192 17.632C93.9192 14.128 94.5672 11.488 95.8632 9.712C97.1832 7.912 99.2952 7.012 102.199 7.012C104.839 7.012 106.747 7.744 107.923 9.208C109.123 10.648 109.723 12.796 109.723 15.652C109.723 16.324 109.699 17.02 109.651 17.74C109.603 18.436 109.519 19.072 109.399 19.648H100.795C100.939 21.112 101.347 22.096 102.019 22.6C102.691 23.08 103.819 23.32 105.403 23.32C105.955 23.32 106.519 23.272 107.095 23.176C107.695 23.08 108.271 22.972 108.823 22.852V27.748C107.983 27.916 107.095 28.06 106.159 28.18C105.247 28.3 104.335 28.36 103.423 28.36ZM102.451 11.764C101.491 11.764 100.927 13.06 100.759 15.652H103.711C103.711 15.124 103.687 14.56 103.639 13.96C103.615 13.36 103.507 12.844 103.315 12.412C103.147 11.98 102.859 11.764 102.451 11.764ZM117.666 8.704C119.082 7.576 120.618 7.012 122.274 7.012C123.93 7.012 125.298 7.528 126.378 8.56C127.482 9.592 128.034 11.14 128.034 13.204V28H121.554V14.248C121.554 12.784 120.894 12.052 119.574 12.052C119.046 12.052 118.578 12.184 118.17 12.448V28H111.69V7.3H117.198L117.666 8.704ZM136.649 28.36C135.329 28.36 134.237 28.084 133.373 27.532C132.533 26.956 131.861 26.176 131.357 25.192C130.877 24.208 130.529 23.104 130.313 21.88C130.121 20.632 130.025 19.324 130.025 17.956C130.025 14.02 130.637 11.212 131.861 9.532C133.109 7.852 134.897 7.012 137.225 7.012C138.281 7.012 139.457 7.228 140.753 7.66V1.792L147.233 0.819998V28H141.725L141.185 26.416C140.657 27.016 139.997 27.496 139.205 27.856C138.413 28.192 137.561 28.36 136.649 28.36ZM138.773 23.32C139.037 23.32 139.337 23.272 139.673 23.176C140.009 23.08 140.369 22.924 140.753 22.708V12.268C140.225 12.124 139.733 12.052 139.277 12.052C138.173 12.052 137.465 12.556 137.153 13.564C136.865 14.572 136.721 16.096 136.721 18.136C136.721 20.032 136.865 21.376 137.153 22.168C137.441 22.936 137.981 23.32 138.773 23.32Z"/>
</svg>
