<svg width="101" height="29" viewBox="0 0 101 29" fill="none" xmlns="http://www.w3.org/2000/svg">
  <path fill="white" d="M10.548 28.36C8.196 28.36 6.3 27.964 4.86 27.172C3.42 26.356 2.364 24.988 1.692 23.068C1.044 21.124 0.72 18.46 0.72 15.076C0.72 11.692 1.044 9.04 1.692 7.12C2.364 5.176 3.42 3.808 4.86 3.016C6.3 2.2 8.196 1.792 10.548 1.792C12.9 1.792 14.796 2.2 16.236 3.016C17.676 3.808 18.72 5.176 19.368 7.12C20.04 9.04 20.376 11.692 20.376 15.076C20.376 18.46 20.04 21.124 19.368 23.068C18.72 24.988 17.676 26.356 16.236 27.172C14.796 27.964 12.9 28.36 10.548 28.36ZM12.816 15.004C12.816 12.94 12.744 11.368 12.6 10.288C12.48 9.184 12.252 8.428 11.916 8.02C11.604 7.588 11.148 7.372 10.548 7.372C9.972 7.372 9.516 7.588 9.18 8.02C8.844 8.428 8.604 9.184 8.46 10.288C8.34 11.368 8.28 12.94 8.28 15.004C8.28 17.044 8.34 18.628 8.46 19.756C8.604 20.884 8.844 21.676 9.18 22.132C9.516 22.564 9.972 22.78 10.548 22.78C11.148 22.78 11.604 22.564 11.916 22.132C12.252 21.676 12.48 20.884 12.6 19.756C12.744 18.628 12.816 17.044 12.816 15.004ZM30.6338 7.3H34.5578V12.16H30.6338V21.124C30.6338 21.796 30.8018 22.288 31.1378 22.6C31.4978 22.912 32.0618 23.068 32.8298 23.068C33.2138 23.068 33.5498 23.056 33.8378 23.032C34.1258 22.984 34.3658 22.936 34.5578 22.888V27.676C33.9818 27.868 33.3698 28.024 32.7218 28.144C32.0978 28.288 31.4618 28.36 30.8138 28.36C28.6058 28.36 26.9378 27.892 25.8098 26.956C24.7058 25.996 24.1538 24.292 24.1538 21.844V12.16H21.4538V7.3H24.1538V2.764H30.6338V7.3ZM43.1817 8.344C44.4777 7.456 45.8457 7.012 47.2857 7.012C48.9417 7.012 50.3097 7.528 51.3897 8.56C52.4937 9.592 53.0457 11.14 53.0457 13.204V28H46.5657V14.248C46.5657 12.784 45.9057 12.052 44.5857 12.052C44.0577 12.052 43.5897 12.184 43.1817 12.448V28H36.7017V1.756L43.1817 0.819998V8.344ZM64.5404 28.36C63.1244 28.36 61.8284 28.204 60.6524 27.892C59.5004 27.58 58.5044 27.028 57.6644 26.236C56.8244 25.444 56.1764 24.352 55.7204 22.96C55.2644 21.568 55.0364 19.792 55.0364 17.632C55.0364 14.128 55.6844 11.488 56.9804 9.712C58.3004 7.912 60.4124 7.012 63.3164 7.012C65.9564 7.012 67.8644 7.744 69.0404 9.208C70.2404 10.648 70.8404 12.796 70.8404 15.652C70.8404 16.324 70.8164 17.02 70.7684 17.74C70.7204 18.436 70.6364 19.072 70.5164 19.648H61.9124C62.0564 21.112 62.4644 22.096 63.1364 22.6C63.8084 23.08 64.9364 23.32 66.5204 23.32C67.0724 23.32 67.6364 23.272 68.2124 23.176C68.8124 23.08 69.3884 22.972 69.9404 22.852V27.748C69.1004 27.916 68.2124 28.06 67.2764 28.18C66.3644 28.3 65.4524 28.36 64.5404 28.36ZM63.5684 11.764C62.6084 11.764 62.0444 13.06 61.8764 15.652H64.8284C64.8284 15.124 64.8044 14.56 64.7564 13.96C64.7324 13.36 64.6244 12.844 64.4324 12.412C64.2644 11.98 63.9764 11.764 63.5684 11.764ZM72.8072 28V7.3H78.3152L79.0352 10.18H79.1072C79.4912 8.98 80.1632 8.104 81.1232 7.552C82.1072 7 83.3432 6.856 84.8312 7.12V13.24C83.8952 13.24 82.9232 13.3 81.9152 13.42C80.9312 13.54 80.0552 13.708 79.2872 13.924V28H72.8072ZM93.4594 21.952C93.4594 21.544 93.1594 21.148 92.5594 20.764L89.4634 18.748C88.3354 18.004 87.5194 17.2 87.0154 16.336C86.5114 15.472 86.2594 14.344 86.2594 12.952C86.2594 10.96 86.8474 9.484 88.0234 8.524C89.1994 7.54 91.1314 7.036 93.8194 7.012C94.8274 7.012 95.7514 7.06 96.5914 7.156C97.4554 7.228 98.1394 7.312 98.6434 7.408C99.1714 7.504 99.4354 7.552 99.4354 7.552L98.8954 12.34C98.8954 12.34 98.7154 12.316 98.3554 12.268C97.9954 12.22 97.5274 12.172 96.9514 12.124C96.3994 12.052 95.8234 12.016 95.2234 12.016C94.3594 12.016 93.7354 12.088 93.3514 12.232C92.9674 12.376 92.7754 12.652 92.7754 13.06C92.7754 13.3 92.8474 13.504 92.9914 13.672C93.1354 13.816 93.3634 13.984 93.6754 14.176L96.8434 16.228C97.9954 16.972 98.8234 17.776 99.3274 18.64C99.8314 19.48 100.083 20.572 100.083 21.916C100.083 24.052 99.4714 25.66 98.2474 26.74C97.0234 27.796 95.0194 28.336 92.2354 28.36C91.0114 28.36 89.8834 28.288 88.8514 28.144C87.8434 28.024 86.9194 27.856 86.0794 27.64L86.6194 22.744C86.6194 22.744 87.0634 22.816 87.9514 22.96C88.8394 23.08 90.0154 23.14 91.4794 23.14C92.7994 23.14 93.4594 22.744 93.4594 21.952Z"/>
</svg>
