<svg width="146" height="34" viewBox="0 0 146 34" fill="none" xmlns="http://www.w3.org/2000/svg">
  <path fill="white" d="M2.535 28V6.429L0.5 1.36H11.156C13.376 1.36 15.2137 1.66833 16.669 2.285C18.1243 2.877 19.2097 3.88833 19.925 5.319C20.6403 6.74967 20.998 8.69833 20.998 11.165C20.998 14.569 20.184 17.0233 18.556 18.528C16.928 20.0327 14.4613 20.785 11.156 20.785H9.75V28H2.535ZM9.75 15.494C10.934 15.494 11.8097 15.1733 12.377 14.532C12.969 13.8907 13.265 12.7437 13.265 11.091C13.265 9.833 13.154 8.88333 12.932 8.242C12.7347 7.60067 12.377 7.169 11.859 6.947C11.3657 6.70033 10.6627 6.577 9.75 6.577V15.494ZM27.2808 28.37C26.2941 28.37 25.3691 28.1233 24.5058 27.63C23.6424 27.112 22.9394 26.372 22.3968 25.41C21.8541 24.448 21.5828 23.2887 21.5828 21.932C21.5828 19.8107 22.3228 18.2073 23.8028 17.122C25.3074 16.0367 27.2438 15.494 29.6118 15.494H31.2028V13.459C31.2028 12.7437 30.9561 12.2627 30.4628 12.016C29.9694 11.7447 29.3404 11.609 28.5758 11.609C27.6384 11.609 26.7381 11.6953 25.8748 11.868C25.0114 12.0407 24.1481 12.2873 23.2848 12.608V7.428C24.3948 7.18133 25.5418 6.95933 26.7258 6.762C27.9344 6.54 29.1431 6.429 30.3518 6.429C31.7084 6.429 32.9541 6.60167 34.0888 6.947C35.2234 7.26767 36.1361 7.85966 36.8268 8.723C37.5174 9.58633 37.8628 10.8197 37.8628 12.423V28H32.0908L31.6468 26.409C31.0301 27.075 30.3394 27.5683 29.5748 27.889C28.8101 28.2097 28.0454 28.37 27.2808 28.37ZM29.8708 23.486C30.3641 23.486 30.8081 23.264 31.2028 22.82V19.157H30.7218C29.9818 19.157 29.3528 19.342 28.8348 19.712C28.3168 20.0573 28.0578 20.5877 28.0578 21.303C28.0578 21.9937 28.2428 22.5363 28.6128 22.931C28.9828 23.301 29.4021 23.486 29.8708 23.486ZM49.2631 28.37C47.9311 28.37 46.6978 28.1973 45.5631 27.852C44.4284 27.5067 43.4294 26.927 42.5661 26.113C41.7274 25.299 41.0738 24.1767 40.6051 22.746C40.1364 21.3153 39.9021 19.5147 39.9021 17.344C39.9021 15.2227 40.1734 13.459 40.7161 12.053C41.2834 10.647 42.0481 9.537 43.0101 8.723C43.9721 7.909 45.0574 7.32933 46.2661 6.984C47.4748 6.614 48.7451 6.429 50.0771 6.429C50.9404 6.429 51.7298 6.49067 52.4451 6.614C53.1604 6.73733 53.9004 6.92233 54.6651 7.169V15.494H50.8541L50.1141 11.646C49.0041 11.646 48.1654 12.0653 47.5981 12.904C47.0554 13.7427 46.7841 15.2473 46.7841 17.418C46.7841 18.972 46.9814 20.1683 47.3761 21.007C47.7708 21.8457 48.3258 22.413 49.0411 22.709C49.7564 23.005 50.6074 23.116 51.5941 23.042C52.5808 22.9433 53.6538 22.746 54.8131 22.45V27.704C54.0484 27.926 53.1481 28.0863 52.1121 28.185C51.0761 28.3083 50.1264 28.37 49.2631 28.37ZM63.7787 15.975L67.3307 6.725H74.2497L70.0687 17.122L74.2497 28H67.1827L63.7787 18.454V28H57.1187V0.953L63.7787 0.064998V15.975ZM80.4321 28.37C79.4455 28.37 78.5205 28.1233 77.6571 27.63C76.7938 27.112 76.0908 26.372 75.5481 25.41C75.0055 24.448 74.7341 23.2887 74.7341 21.932C74.7341 19.8107 75.4741 18.2073 76.9541 17.122C78.4588 16.0367 80.3951 15.494 82.7631 15.494H84.3541V13.459C84.3541 12.7437 84.1075 12.2627 83.6141 12.016C83.1208 11.7447 82.4918 11.609 81.7271 11.609C80.7898 11.609 79.8895 11.6953 79.0261 11.868C78.1628 12.0407 77.2995 12.2873 76.4361 12.608V7.428C77.5461 7.18133 78.6931 6.95933 79.8771 6.762C81.0858 6.54 82.2945 6.429 83.5031 6.429C84.8598 6.429 86.1055 6.60167 87.2401 6.947C88.3748 7.26767 89.2875 7.85966 89.9781 8.723C90.6688 9.58633 91.0141 10.8197 91.0141 12.423V28H85.2421L84.7981 26.409C84.1815 27.075 83.4908 27.5683 82.7261 27.889C81.9615 28.2097 81.1968 28.37 80.4321 28.37ZM83.0221 23.486C83.5155 23.486 83.9595 23.264 84.3541 22.82V19.157H83.8731C83.1331 19.157 82.5041 19.342 81.9861 19.712C81.4681 20.0573 81.2091 20.5877 81.2091 21.303C81.2091 21.9937 81.3941 22.5363 81.7641 22.931C82.1341 23.301 82.5535 23.486 83.0221 23.486ZM102.71 33.92C101.699 33.92 100.7 33.8707 99.7135 33.772C98.7268 33.698 97.9128 33.6117 97.2715 33.513C96.6301 33.439 96.3095 33.402 96.3095 33.402V28.37C97.1481 28.4687 97.9128 28.5427 98.6035 28.592C99.3188 28.666 100.059 28.703 100.823 28.703C101.909 28.703 102.747 28.4933 103.339 28.074C103.931 27.6793 104.227 27.0257 104.227 26.113V24.966C103.117 26.002 101.687 26.52 99.9355 26.52C98.6035 26.52 97.4935 26.261 96.6055 25.743C95.7421 25.2003 95.0638 24.4727 94.5705 23.56C94.0771 22.6227 93.7195 21.5743 93.4975 20.415C93.3001 19.231 93.2015 17.9977 93.2015 16.715C93.2015 13.015 93.8181 10.3757 95.0515 8.797C96.3095 7.21833 98.1225 6.429 100.49 6.429C102.242 6.429 103.66 7.00867 104.745 8.168L105.226 6.725H110.887V25.41C110.887 28.2467 110.172 30.368 108.741 31.774C107.335 33.2047 105.325 33.92 102.71 33.92ZM102.192 21.71C102.464 21.71 102.772 21.673 103.117 21.599C103.463 21.5003 103.833 21.3523 104.227 21.155V11.794C103.956 11.7447 103.685 11.7077 103.413 11.683C103.167 11.6337 102.932 11.609 102.71 11.609C101.576 11.609 100.848 12.0653 100.527 12.978C100.231 13.8907 100.083 15.2597 100.083 17.085C100.083 18.7623 100.231 19.9587 100.527 20.674C100.823 21.3647 101.378 21.71 102.192 21.71ZM122.875 28.37C121.42 28.37 120.088 28.2097 118.879 27.889C117.695 27.5683 116.672 27.001 115.808 26.187C114.945 25.373 114.279 24.2507 113.81 22.82C113.342 21.3893 113.107 19.564 113.107 17.344C113.107 13.7427 113.773 11.0293 115.105 9.204C116.462 7.354 118.633 6.429 121.617 6.429C124.331 6.429 126.292 7.18133 127.5 8.686C128.734 10.166 129.35 12.3737 129.35 15.309C129.35 15.9997 129.326 16.715 129.276 17.455C129.227 18.1703 129.141 18.824 129.017 19.416H120.174C120.322 20.9207 120.742 21.932 121.432 22.45C122.123 22.9433 123.282 23.19 124.91 23.19C125.478 23.19 126.057 23.1407 126.649 23.042C127.266 22.9433 127.858 22.8323 128.425 22.709V27.741C127.562 27.9137 126.649 28.0617 125.687 28.185C124.75 28.3083 123.813 28.37 122.875 28.37ZM121.876 11.313C120.89 11.313 120.31 12.645 120.137 15.309H123.171C123.171 14.7663 123.147 14.1867 123.097 13.57C123.073 12.9533 122.962 12.423 122.764 11.979C122.592 11.535 122.296 11.313 121.876 11.313ZM138.217 21.784C138.217 21.3647 137.908 20.9577 137.292 20.563L134.11 18.491C132.95 17.7263 132.112 16.9 131.594 16.012C131.076 15.124 130.817 13.9647 130.817 12.534C130.817 10.4867 131.421 8.96967 132.63 7.983C133.838 6.97167 135.824 6.45367 138.587 6.429C139.623 6.429 140.572 6.47833 141.436 6.577C142.324 6.651 143.027 6.73733 143.545 6.836C144.087 6.93467 144.359 6.984 144.359 6.984L143.804 11.905C143.804 11.905 143.619 11.8803 143.249 11.831C142.879 11.7817 142.398 11.7323 141.806 11.683C141.238 11.609 140.646 11.572 140.03 11.572C139.142 11.572 138.5 11.646 138.106 11.794C137.711 11.942 137.514 12.2257 137.514 12.645C137.514 12.8917 137.588 13.1013 137.736 13.274C137.884 13.422 138.118 13.5947 138.439 13.792L141.695 15.901C142.879 16.6657 143.73 17.492 144.248 18.38C144.766 19.2433 145.025 20.3657 145.025 21.747C145.025 23.9423 144.396 25.595 143.138 26.705C141.88 27.7903 139.82 28.3453 136.959 28.37C135.701 28.37 134.541 28.296 133.481 28.148C132.445 28.0247 131.495 27.852 130.632 27.63L131.187 22.598C131.187 22.598 131.643 22.672 132.556 22.82C133.468 22.9433 134.677 23.005 136.182 23.005C137.538 23.005 138.217 22.598 138.217 21.784Z"/>
</svg>
