<svg width="221" height="29" viewBox="0 0 221 29" fill="none" xmlns="http://www.w3.org/2000/svg">
  <path fill="white" d="M8.1 22.132C9.012 22.132 9.696 22 10.152 21.736C10.608 21.472 10.836 21.04 10.836 20.44C10.836 20.032 10.728 19.708 10.512 19.468C10.296 19.228 9.912 18.988 9.36 18.748L5.544 16.984C4.128 16.336 3.036 15.472 2.268 14.392C1.5 13.312 1.116 11.74 1.116 9.676C1.116 7.036 1.8 5.068 3.168 3.772C4.56 2.452 6.852 1.78 10.044 1.756C11.364 1.756 12.564 1.816 13.644 1.936C14.724 2.056 15.588 2.188 16.236 2.332C16.884 2.452 17.208 2.512 17.208 2.512L16.488 8.308C16.488 8.308 16.188 8.272 15.588 8.2C15.012 8.128 14.292 8.068 13.428 8.02C12.564 7.948 11.724 7.912 10.908 7.912C10.044 7.912 9.384 8.044 8.928 8.308C8.496 8.548 8.28 9.016 8.28 9.712C8.28 10.096 8.448 10.42 8.784 10.684C9.12 10.924 9.588 11.176 10.188 11.44L13.248 12.772C14.88 13.492 16.068 14.392 16.812 15.472C17.556 16.528 17.928 18.04 17.928 20.008C17.928 22.672 17.232 24.724 15.84 26.164C14.448 27.604 12.156 28.336 8.964 28.36C7.38 28.36 5.904 28.252 4.536 28.036C3.168 27.844 1.956 27.616 0.9 27.352L1.62 21.556C1.62 21.556 1.908 21.604 2.484 21.7C3.084 21.796 3.876 21.892 4.86 21.988C5.844 22.084 6.924 22.132 8.1 22.132ZM29.0678 28.36C27.6518 28.36 26.3558 28.204 25.1798 27.892C24.0278 27.58 23.0318 27.028 22.1918 26.236C21.3518 25.444 20.7038 24.352 20.2478 22.96C19.7918 21.568 19.5638 19.792 19.5638 17.632C19.5638 14.128 20.2118 11.488 21.5078 9.712C22.8278 7.912 24.9398 7.012 27.8438 7.012C30.4838 7.012 32.3918 7.744 33.5678 9.208C34.7678 10.648 35.3678 12.796 35.3678 15.652C35.3678 16.324 35.3438 17.02 35.2958 17.74C35.2478 18.436 35.1638 19.072 35.0438 19.648H26.4398C26.5838 21.112 26.9918 22.096 27.6638 22.6C28.3358 23.08 29.4638 23.32 31.0478 23.32C31.5998 23.32 32.1638 23.272 32.7398 23.176C33.3398 23.08 33.9158 22.972 34.4678 22.852V27.748C33.6278 27.916 32.7398 28.06 31.8038 28.18C30.8918 28.3 29.9798 28.36 29.0678 28.36ZM28.0957 11.764C27.1358 11.764 26.5718 13.06 26.4038 15.652H29.3558C29.3558 15.124 29.3318 14.56 29.2838 13.96C29.2598 13.36 29.1518 12.844 28.9598 12.412C28.7918 11.98 28.5038 11.764 28.0957 11.764ZM37.3345 28V7.3H42.8425L43.5625 10.18H43.6345C44.0185 8.98 44.6905 8.104 45.6505 7.552C46.6345 7 47.8705 6.856 49.3585 7.12V13.24C48.4225 13.24 47.4505 13.3 46.4425 13.42C45.4585 13.54 44.5825 13.708 43.8145 13.924V28H37.3345ZM54.8907 28L50.0667 7.3H56.7267L58.8147 21.016H58.8867L60.9027 7.3H67.3827L62.4867 28H54.8907ZM69.0103 7.3H75.4903V28H69.0103V7.3ZM68.8303 0.819998H75.6703V5.716H68.8303V0.819998ZM86.7499 28.36C85.4539 28.36 84.2539 28.192 83.1499 27.856C82.0459 27.52 81.0739 26.956 80.2339 26.164C79.4179 25.372 78.7819 24.28 78.3259 22.888C77.8699 21.496 77.6419 19.744 77.6419 17.632C77.6419 15.568 77.9059 13.852 78.4339 12.484C78.9859 11.116 79.7299 10.036 80.6659 9.244C81.6019 8.452 82.6579 7.888 83.8339 7.552C85.0099 7.192 86.2459 7.012 87.5419 7.012C88.3819 7.012 89.1499 7.072 89.8459 7.192C90.5419 7.312 91.2619 7.492 92.0059 7.732V15.832H88.2979L87.5779 12.088C86.4979 12.088 85.6819 12.496 85.1299 13.312C84.6019 14.128 84.3379 15.592 84.3379 17.704C84.3379 19.216 84.5299 20.38 84.9139 21.196C85.2979 22.012 85.8379 22.564 86.5339 22.852C87.2299 23.14 88.0579 23.248 89.0179 23.176C89.9779 23.08 91.0219 22.888 92.1499 22.6V27.712C91.4059 27.928 90.5299 28.084 89.5219 28.18C88.5139 28.3 87.5899 28.36 86.7499 28.36ZM103.177 28.36C101.761 28.36 100.465 28.204 99.2891 27.892C98.1371 27.58 97.1411 27.028 96.3011 26.236C95.4611 25.444 94.8131 24.352 94.3571 22.96C93.9011 21.568 93.6731 19.792 93.6731 17.632C93.6731 14.128 94.3211 11.488 95.6171 9.712C96.9371 7.912 99.0491 7.012 101.953 7.012C104.593 7.012 106.501 7.744 107.677 9.208C108.877 10.648 109.477 12.796 109.477 15.652C109.477 16.324 109.453 17.02 109.405 17.74C109.357 18.436 109.273 19.072 109.153 19.648H100.549C100.693 21.112 101.101 22.096 101.773 22.6C102.445 23.08 103.573 23.32 105.157 23.32C105.709 23.32 106.273 23.272 106.849 23.176C107.449 23.08 108.025 22.972 108.577 22.852V27.748C107.737 27.916 106.849 28.06 105.913 28.18C105.001 28.3 104.089 28.36 103.177 28.36ZM102.205 11.764C101.245 11.764 100.681 13.06 100.513 15.652H103.465C103.465 15.124 103.441 14.56 103.393 13.96C103.369 13.36 103.261 12.844 103.069 12.412C102.901 11.98 102.613 11.764 102.205 11.764ZM118.104 21.952C118.104 21.544 117.804 21.148 117.204 20.764L114.108 18.748C112.98 18.004 112.164 17.2 111.66 16.336C111.156 15.472 110.904 14.344 110.904 12.952C110.904 10.96 111.492 9.484 112.668 8.524C113.844 7.54 115.776 7.036 118.464 7.012C119.472 7.012 120.396 7.06 121.236 7.156C122.1 7.228 122.784 7.312 123.288 7.408C123.816 7.504 124.08 7.552 124.08 7.552L123.54 12.34C123.54 12.34 123.36 12.316 123 12.268C122.64 12.22 122.172 12.172 121.596 12.124C121.044 12.052 120.468 12.016 119.868 12.016C119.004 12.016 118.38 12.088 117.996 12.232C117.612 12.376 117.42 12.652 117.42 13.06C117.42 13.3 117.492 13.504 117.636 13.672C117.78 13.816 118.008 13.984 118.32 14.176L121.488 16.228C122.64 16.972 123.468 17.776 123.972 18.64C124.476 19.48 124.728 20.572 124.728 21.916C124.728 24.052 124.116 25.66 122.892 26.74C121.668 27.796 119.664 28.336 116.88 28.36C115.656 28.36 114.528 28.288 113.496 28.144C112.488 28.024 111.564 27.856 110.724 27.64L111.264 22.744C111.264 22.744 111.708 22.816 112.596 22.96C113.484 23.08 114.66 23.14 116.124 23.14C117.444 23.14 118.104 22.744 118.104 21.952ZM151.214 17.2C151.478 16.216 151.646 15.232 151.718 14.248C151.814 13.264 151.862 12.436 151.862 11.764H158.558C158.558 12.676 158.474 13.744 158.306 14.968C158.138 16.168 157.838 17.392 157.406 18.64C156.974 19.888 156.374 21.064 155.605 22.168L160.754 27.964H151.574L150.422 26.632C149.75 27.184 148.886 27.616 147.83 27.928C146.774 28.216 145.61 28.36 144.338 28.36C142.634 28.36 141.158 27.976 139.91 27.208C138.662 26.416 137.702 25.408 137.03 24.184C136.382 22.96 136.058 21.676 136.058 20.332C136.058 19.492 136.178 18.652 136.418 17.812C136.658 16.948 137.066 16.156 137.642 15.436C138.242 14.716 139.046 14.14 140.054 13.708C139.622 12.892 139.286 12.1 139.046 11.332C138.83 10.564 138.722 9.808 138.722 9.064C138.722 7.36 139.094 5.98 139.838 4.924C140.582 3.844 141.578 3.064 142.826 2.584C144.098 2.08 145.526 1.828 147.11 1.828C147.998 1.828 148.91 1.9 149.846 2.044C150.782 2.164 151.73 2.356 152.69 2.62L152.186 8.236C151.682 8.044 151.154 7.888 150.602 7.768C150.074 7.648 149.558 7.588 149.054 7.588C148.094 7.588 147.326 7.78 146.75 8.164C146.198 8.524 145.922 9.112 145.922 9.928C145.922 10.744 146.45 11.764 147.506 12.988L151.214 17.2ZM146.75 23.068C146.87 23.068 146.99 23.068 147.11 23.068C147.254 23.068 147.398 23.056 147.542 23.032L142.898 17.56C142.778 18.04 142.718 18.52 142.718 19C142.718 20.104 143.042 21.064 143.689 21.88C144.338 22.672 145.358 23.068 146.75 23.068ZM178.685 24.508L178.001 28H170.477L175.661 5.32L174.833 1.792H185.705L191.357 28H183.905L183.221 24.508H178.685ZM179.405 18.928H182.465L180.953 9.496L179.405 18.928ZM193.16 28V7.012L191.18 2.08H201.548C203.708 2.08 205.496 2.38 206.912 2.98C208.328 3.556 209.384 4.54 210.08 5.932C210.776 7.324 211.124 9.22 211.124 11.62C211.124 14.932 210.332 17.32 208.748 18.784C207.164 20.248 204.764 20.98 201.548 20.98H200.18V28H193.16ZM200.18 15.832C201.332 15.832 202.184 15.52 202.736 14.896C203.312 14.272 203.6 13.156 203.6 11.548C203.6 10.324 203.492 9.4 203.276 8.776C203.084 8.152 202.736 7.732 202.232 7.516C201.752 7.276 201.068 7.156 200.18 7.156V15.832ZM213.296 2.08H220.316V28H213.296V2.08Z"/>
</svg>
