<svg width="155" height="28" viewBox="0 0 155 28" fill="none" xmlns="http://www.w3.org/2000/svg">
  <path fill="#1D1D1D" d="M7.6 21.632C8.512 21.632 9.196 21.5 9.652 21.236C10.108 20.972 10.336 20.54 10.336 19.94C10.336 19.532 10.228 19.208 10.012 18.968C9.796 18.728 9.412 18.488 8.86 18.248L5.044 16.484C3.628 15.836 2.536 14.972 1.768 13.892C1 12.812 0.616 11.24 0.616 9.176C0.616 6.536 1.3 4.568 2.668 3.272C4.06 1.952 6.352 1.28 9.544 1.256C10.864 1.256 12.064 1.316 13.144 1.436C14.224 1.556 15.088 1.688 15.736 1.832C16.384 1.952 16.708 2.012 16.708 2.012L15.988 7.808C15.988 7.808 15.688 7.772 15.088 7.7C14.512 7.628 13.792 7.568 12.928 7.52C12.064 7.448 11.224 7.412 10.408 7.412C9.544 7.412 8.884 7.544 8.428 7.808C7.996 8.048 7.78 8.516 7.78 9.212C7.78 9.596 7.948 9.92 8.284 10.184C8.62 10.424 9.088 10.676 9.688 10.94L12.748 12.272C14.38 12.992 15.568 13.892 16.312 14.972C17.056 16.028 17.428 17.54 17.428 19.508C17.428 22.172 16.732 24.224 15.34 25.664C13.948 27.104 11.656 27.836 8.464 27.86C6.88 27.86 5.404 27.752 4.036 27.536C2.668 27.344 1.456 27.116 0.4 26.852L1.12 21.056C1.12 21.056 1.408 21.104 1.984 21.2C2.584 21.296 3.376 21.392 4.36 21.488C5.344 21.584 6.424 21.632 7.6 21.632ZM27.9558 27.86C25.8198 27.86 24.0918 27.5 22.7718 26.78C21.4758 26.06 20.5278 24.92 19.9278 23.36C19.3518 21.776 19.0638 19.712 19.0638 17.168C19.0638 14.624 19.3518 12.572 19.9278 11.012C20.5278 9.452 21.4758 8.312 22.7718 7.592C24.0918 6.872 25.8198 6.512 27.9558 6.512C30.1158 6.512 31.8438 6.872 33.1398 7.592C34.4358 8.312 35.3718 9.452 35.9478 11.012C36.5478 12.572 36.8477 14.624 36.8477 17.168C36.8477 19.712 36.5478 21.776 35.9478 23.36C35.3718 24.92 34.4358 26.06 33.1398 26.78C31.8438 27.5 30.1158 27.86 27.9558 27.86ZM27.9198 22.784C28.7358 22.784 29.3118 22.352 29.6478 21.488C29.9838 20.6 30.1518 19.172 30.1518 17.204C30.1518 15.212 29.9838 13.784 29.6478 12.92C29.3118 12.032 28.7358 11.588 27.9198 11.588C27.1278 11.588 26.5638 12.032 26.2278 12.92C25.9158 13.784 25.7598 15.212 25.7598 17.204C25.7598 19.172 25.9158 20.6 26.2278 21.488C26.5638 22.352 27.1278 22.784 27.9198 22.784ZM40.4542 27.5V11.66H38.2942V6.8H40.4542V5.864C40.4542 4.376 40.7422 3.212 41.3182 2.372C41.8942 1.532 42.8062 0.931999 44.0542 0.571999C45.3022 0.211999 46.9462 0.0319996 48.9862 0.0319996C49.4662 0.0319996 49.9702 0.0679991 50.4982 0.139998V4.784C49.9942 4.712 49.5262 4.676 49.0942 4.676C48.3982 4.676 47.8582 4.808 47.4742 5.072C47.1142 5.312 46.9342 5.732 46.9342 6.332V6.8H50.4982V11.66H46.9342V27.5H40.4542ZM60.7548 6.8H64.6788V11.66H60.7548V20.624C60.7548 21.296 60.9228 21.788 61.2588 22.1C61.6188 22.412 62.1828 22.568 62.9508 22.568C63.3348 22.568 63.6708 22.556 63.9588 22.532C64.2468 22.484 64.4868 22.436 64.6788 22.388V27.176C64.1028 27.368 63.4908 27.524 62.8428 27.644C62.2188 27.788 61.5828 27.86 60.9348 27.86C58.7268 27.86 57.0588 27.392 55.9308 26.456C54.8268 25.496 54.2748 23.792 54.2748 21.344V11.66H51.5748V6.8H54.2748V2.264H60.7548V6.8ZM82.4828 21.632C83.3948 21.632 84.0788 21.5 84.5348 21.236C84.9908 20.972 85.2188 20.54 85.2188 19.94C85.2188 19.532 85.1108 19.208 84.8948 18.968C84.6788 18.728 84.2948 18.488 83.7428 18.248L79.9268 16.484C78.5108 15.836 77.4188 14.972 76.6508 13.892C75.8828 12.812 75.4988 11.24 75.4988 9.176C75.4988 6.536 76.1828 4.568 77.5508 3.272C78.9428 1.952 81.2348 1.28 84.4268 1.256C85.7468 1.256 86.9468 1.316 88.0268 1.436C89.1068 1.556 89.9708 1.688 90.6188 1.832C91.2668 1.952 91.5908 2.012 91.5908 2.012L90.8708 7.808C90.8708 7.808 90.5708 7.772 89.9708 7.7C89.3948 7.628 88.6748 7.568 87.8108 7.52C86.9468 7.448 86.1068 7.412 85.2908 7.412C84.4268 7.412 83.7668 7.544 83.3108 7.808C82.8788 8.048 82.6628 8.516 82.6628 9.212C82.6628 9.596 82.8308 9.92 83.1668 10.184C83.5028 10.424 83.9708 10.676 84.5708 10.94L87.6308 12.272C89.2628 12.992 90.4508 13.892 91.1948 14.972C91.9388 16.028 92.3108 17.54 92.3108 19.508C92.3108 22.172 91.6148 24.224 90.2228 25.664C88.8308 27.104 86.5388 27.836 83.3468 27.86C81.7628 27.86 80.2868 27.752 78.9188 27.536C77.5508 27.344 76.3388 27.116 75.2828 26.852L76.0028 21.056C76.0028 21.056 76.2908 21.104 76.8668 21.2C77.4668 21.296 78.2588 21.392 79.2428 21.488C80.2268 21.584 81.3068 21.632 82.4828 21.632ZM101.147 15.8L104.603 6.8H111.335L107.267 16.916L111.335 27.5H104.459L101.147 18.212V27.5H94.6666V1.184L101.147 0.319998V15.8ZM113.053 6.8H119.533V27.5H113.053V6.8ZM112.873 0.319998H119.713V5.216H112.873V0.319998ZM128.885 27.5H122.405V1.184L128.885 0.319998V27.5ZM138.236 27.5H131.756V1.184L138.236 0.319998V27.5ZM147.768 21.452C147.768 21.044 147.468 20.648 146.868 20.264L143.772 18.248C142.644 17.504 141.828 16.7 141.324 15.836C140.82 14.972 140.568 13.844 140.568 12.452C140.568 10.46 141.156 8.984 142.332 8.024C143.508 7.04 145.44 6.536 148.128 6.512C149.136 6.512 150.06 6.56 150.9 6.656C151.764 6.728 152.448 6.812 152.952 6.908C153.48 7.004 153.744 7.052 153.744 7.052L153.204 11.84C153.204 11.84 153.024 11.816 152.664 11.768C152.304 11.72 151.836 11.672 151.26 11.624C150.708 11.552 150.132 11.516 149.532 11.516C148.668 11.516 148.044 11.588 147.66 11.732C147.276 11.876 147.084 12.152 147.084 12.56C147.084 12.8 147.156 13.004 147.3 13.172C147.444 13.316 147.672 13.484 147.984 13.676L151.152 15.728C152.304 16.472 153.132 17.276 153.636 18.14C154.14 18.98 154.392 20.072 154.392 21.416C154.392 23.552 153.78 25.16 152.556 26.24C151.332 27.296 149.328 27.836 146.544 27.86C145.32 27.86 144.192 27.788 143.16 27.644C142.152 27.524 141.228 27.356 140.388 27.14L140.928 22.244C140.928 22.244 141.372 22.316 142.26 22.46C143.148 22.58 144.324 22.64 145.788 22.64C147.108 22.64 147.768 22.244 147.768 21.452Z"/>
</svg>
